<svg xmlns="http://www.w3.org/2000/svg" xmlns:xlink="http://www.w3.org/1999/xlink" xmlns:lucid="lucid" width="716.12" height="490"><g transform="translate(-443.88008629957824 -230)" lucid:page-tab-id="0_0"><path d="M980 530a10 10 0 0 1 10-10h140a10 10 0 0 1 10 10v160a10 10 0 0 1-10 10H990a10 10 0 0 1-10-10z" fill-opacity="0"/><path d="M1007.5 520h11.67m11.66 0h11.67m11.67 0h11.66m11.67 0h11.67m11.66 0h11.67m11.67 0h5.83l1.56.12 1.53.37 1.44.6 1.34.8 1.2 1.03 1 1.2.83 1.33.6 1.45.38 1.54.12 1.56v5.7m0 11.44v11.43m0 11.43v11.43m0 11.43v11.43m0 11.4v11.44m0 11.43V650m0 11.43v11.43m0 11.43v5.7l-.12 1.56-.37 1.53-.6 1.44-.8 1.34-1.03 1.2-1.2 1-1.33.83-1.45.6-1.54.38-1.56.12h-5.83m-11.67 0h-11.67m-11.66 0h-11.67m-11.67 0h-11.66m-11.67 0h-11.67m-11.66 0h-11.67m-11.67 0H990l-1.56-.12-1.53-.37-1.44-.6-1.34-.8-1.2-1.03-1-1.2-.83-1.33-.6-1.45-.38-1.54L980 690v-5.7m0-11.44v-11.43m0-11.43v-11.43m0-11.43V615.7m0-11.4v-11.44m0-11.43V570m0-11.43v-11.43m0-11.43V530l.12-1.56.37-1.53.6-1.44.8-1.34 1.03-1.2 1.2-1 1.33-.83 1.45-.6 1.54-.38L990 520h5.83" stroke="#5e5e5e" stroke-width="3" fill="none"/><path d="M480 530a10 10 0 0 1 10-10h172.24a10 10 0 0 1 10 10v160a10 10 0 0 1-10 10H490a10 10 0 0 1-10-10z" fill-opacity="0"/><path d="M508.45 520h12.3m12.3 0h12.3m12.32 0h12.3m12.3 0h12.3m12.3 0h12.3m12.3 0h12.32m12.3 0h6.14l1.56.12 1.53.37 1.45.6 1.34.8 1.2 1.03 1 1.2.83 1.33.6 1.45.37 1.54.12 1.56v5.7m0 11.44v11.43m0 11.43v11.43m0 11.43v11.43m0 11.4v11.44m0 11.43V650m0 11.43v11.43m0 11.43v5.7l-.12 1.56-.37 1.53-.6 1.44-.82 1.34-1.02 1.2-1.18 1-1.34.83-1.45.6-1.53.38-1.56.12h-6.15m-12.3 0h-12.32m-12.3 0h-12.3m-12.3 0h-12.3m-12.3 0h-12.3m-12.32 0h-12.3m-12.3 0h-12.3m-12.3 0H490l-1.56-.12-1.53-.37-1.44-.6-1.34-.8-1.2-1.03-1-1.2-.83-1.33-.6-1.45-.38-1.54L480 690v-5.7m0-11.44v-11.43m0-11.43v-11.43m0-11.43V615.7m0-11.4v-11.44m0-11.43V570m0-11.43v-11.43m0-11.43V530l.12-1.56.37-1.53.6-1.44.8-1.34 1.03-1.2 1.2-1 1.33-.83 1.45-.6 1.54-.38L490 520h6.15" stroke="#5e5e5e" stroke-width="3" fill="none"/><path d="M516.12 260h112l8 8v32h-120z" stroke="#5e5e5e" stroke-width="3" fill="#fff"/><path d="M628.12 261.43V268h6.57" stroke="#5e5e5e" stroke-width="3" fill="#fff"/><use xlink:href="#a" transform="matrix(1,0,0,1,521.1199137004219,265) translate(31.95679012345679 19.65277777777778)"/><path d="M1002.33 260h107.34l8 8v32h-115.34z" stroke="#5e5e5e" stroke-width="3" fill="#fff"/><path d="M1109.67 261.43V268h6.57" stroke="#5e5e5e" stroke-width="3" fill="#fff"/><use xlink:href="#b" transform="matrix(1,0,0,1,1007.3333333333333,265) translate(18.314814814814817 19.65277777777778)"/><path d="M1004.67 620H1112l8 8v32h-115.33z" stroke="#5e5e5e" stroke-width="3" fill="#fff"/><path d="M1112 621.43V628h6.57" stroke="#5e5e5e" stroke-width="3" fill="#fff"/><use xlink:href="#c" transform="matrix(1,0,0,1,1009.6666666666665,625) translate(21.987654320987655 19.65277777777778)"/><path d="M1004.67 560H1112l8 8v32h-115.33z" stroke="#5e5e5e" stroke-width="3" fill="#fff"/><path d="M1112 561.43V568h6.57" stroke="#5e5e5e" stroke-width="3" fill="#fff"/><use xlink:href="#d" transform="matrix(1,0,0,1,1009.6666666666665,565) translate(17.04938271604938 19.65277777777778)"/><path d="M1000 370a10 10 0 0 1 10-10h100a10 10 0 0 1 10 10v40a10 10 0 0 1-10 10h-100a10 10 0 0 1-10-10z" stroke="#5e5e5e" stroke-width="3" fill="#cfe4ff"/><use xlink:href="#e" transform="matrix(1,0,0,1,1012,372) translate(17.166666666666664 22.27777777777778)"/><path d="M463.88 370a10 10 0 0 1 10-10h204.48a10 10 0 0 1 10 10v40a10 10 0 0 1-10 10H473.88a10 10 0 0 1-10-10z" stroke="#5e5e5e" stroke-width="3" fill="#ffdda6"/><use xlink:href="#f" transform="matrix(1,0,0,1,475.88008629957824,372) translate(11.148148148148152 22.27777777777778)"/><path d="M576.12 302.5V340" stroke="#5e5e5e" stroke-width="2" fill="none"/><path d="M577.12 302.53h-2v-1.03h2z" stroke="#5e5e5e" stroke-width=".05" fill="#5e5e5e"/><path d="M576.12 355.26L571.5 341h9.25z" stroke="#5e5e5e" stroke-width="2" fill="#fff"/><path d="M1060 302.5V340" stroke="#5e5e5e" stroke-width="2" fill="none"/><path d="M1061 302.53h-2v-1.03h2z" stroke="#5e5e5e" stroke-width=".05" fill="#5e5e5e"/><path d="M1060 355.26l-4.63-14.26h9.27z" stroke="#5e5e5e" stroke-width="2" fill="#fff"/><path d="M715.05 260a10 10 0 0 1 10-10h204.48a10 10 0 0 1 10 10v40a10 10 0 0 1-10 10H725.05a10 10 0 0 1-10-10z" stroke="#5e5e5e" stroke-width="3" fill="#f2f3f5"/><use xlink:href="#g" transform="matrix(1,0,0,1,727.0467529662449,262) translate(13.617283950617292 22.27777777777778)"/><path d="M715.05 460a10 10 0 0 1 10-10h204.48a10 10 0 0 1 10 10v40a10 10 0 0 1-10 10H725.05a10 10 0 0 1-10-10z" stroke="#5e5e5e" stroke-width="3" fill="#f2f3f5"/><use xlink:href="#h" transform="matrix(1,0,0,1,727.0467529067071,462.00000000000006) translate(7.444444444444457 22.27777777777778)"/><path d="M769.62 360h107.33l8 8v32H769.62z" stroke="#5e5e5e" stroke-width="3" fill="#fff"/><path d="M876.95 361.43V368h6.57" stroke="#5e5e5e" stroke-width="3" fill="#fff"/><use xlink:href="#i" transform="matrix(1,0,0,1,774.6199137698313,365) translate(30.10493827160494 19.65277777777778)"/><path d="M827.3 312.5V340" stroke="#5e5e5e" stroke-width="2" fill="none"/><path d="M828.3 312.53h-2v-1.03h2z" stroke="#5e5e5e" stroke-width=".05" fill="#5e5e5e"/><path d="M827.3 355.26L822.64 341h9.27z" stroke="#5e5e5e" stroke-width="2" fill="#5e5e5e"/><path d="M942.03 280h40.3" stroke="#5e5e5e" stroke-width="2" fill="none"/><path d="M942.05 281h-1.02v-2h1.02z" stroke="#5e5e5e" stroke-width=".05" fill="#5e5e5e"/><path d="M997.6 280l-14.27 4.63v-9.26z" stroke="#5e5e5e" stroke-width="2" fill="#5e5e5e"/><path d="M638.62 280h56.42" stroke="#5e5e5e" stroke-width="2" fill="none"/><path d="M638.65 281h-1.03v-2h1.03z" stroke="#5e5e5e" stroke-width=".05" fill="#5e5e5e"/><path d="M710.3 280l-14.25 4.63v-9.26z" stroke="#5e5e5e" stroke-width="2" fill="#fff"/><path d="M827.3 402.5V430" stroke="#5e5e5e" stroke-width="2" fill="none"/><path d="M828.3 402.53h-2v-1.03h2z" stroke="#5e5e5e" stroke-width=".05" fill="#5e5e5e"/><path d="M827.3 445.26L822.64 431h9.27z" stroke="#5e5e5e" stroke-width="2" fill="#fff"/><path d="M1060 422.5V500" stroke="#5e5e5e" stroke-width="2" fill="none"/><path d="M1061 422.53h-2v-1.03h2z" stroke="#5e5e5e" stroke-width=".05" fill="#5e5e5e"/><path d="M1060 515.26l-4.63-14.26h9.27z" stroke="#5e5e5e" stroke-width="2" fill="#5e5e5e"/><path d="M500 620h144.24l8 8v32H500z" stroke="#5e5e5e" stroke-width="3" fill="#fff"/><path d="M644.24 621.43V628h6.57" stroke="#5e5e5e" stroke-width="3" fill="#fff"/><use xlink:href="#j" transform="matrix(1,0,0,1,505,625.0000000000001) translate(20.734567901234563 19.65277777777778)"/><path d="M500 560h144.24l8 8v32H500z" stroke="#5e5e5e" stroke-width="3" fill="#fff"/><path d="M644.24 561.43V568h6.57" stroke="#5e5e5e" stroke-width="3" fill="#fff"/><use xlink:href="#k" transform="matrix(1,0,0,1,505,565.0000000000001) translate(16.04320987654321 19.65277777777778)"/><path d="M576.12 422.5V500" stroke="#5e5e5e" stroke-width="2" fill="none"/><path d="M577.12 422.53h-2v-1.03h2z" stroke="#5e5e5e" stroke-width=".05" fill="#5e5e5e"/><path d="M576.12 515.26L571.5 501h9.25z" stroke="#5e5e5e" stroke-width="2" fill="#5e5e5e"/><path d="M753.06 570a10 10 0 0 1 10-10h126.12a10 10 0 0 1 10 10v100a10 10 0 0 1-10 10H763.06a10 10 0 0 1-10-10z" stroke="#5e5e5e" stroke-width="3" fill="#f2f3f5"/><use xlink:href="#l" transform="matrix(1,0,0,1,765.0599568502109,572.0000000000001) translate(30.66666666666667 53.77777777777778)"/><path d="M827.3 512.5V540" stroke="#5e5e5e" stroke-width="2" fill="none"/><path d="M828.3 512.53h-2v-1.03h2z" stroke="#5e5e5e" stroke-width=".05" fill="#5e5e5e"/><path d="M827.3 555.26L822.64 541h9.27z" stroke="#5e5e5e" stroke-width="2" fill="#5e5e5e"/><path d="M901.6 619.64l84.33-32.9" stroke="#5e5e5e" stroke-width="2" fill="none"/><path d="M902 620.56l-1.32.5v-2.13l.6-.23z" stroke="#5e5e5e" stroke-width=".05" fill="#5e5e5e"/><path d="M1000.15 581.18l-11.6 9.5-3.37-8.63z" stroke="#5e5e5e" stroke-width="2" fill="#5e5e5e"/><path d="M901.66 620.2L985 636.45" stroke="#5e5e5e" stroke-width="2" fill="none"/><path d="M901.88 619.2l-.38 1.98-.82-.16v-2.04z" stroke="#5e5e5e" stroke-width=".05" fill="#5e5e5e"/><path d="M1000 639.38l-14.9 1.82 1.78-9.1z" stroke="#5e5e5e" stroke-width="2" fill="#5e5e5e"/><path d="M750.63 619.62L670.87 587" stroke="#5e5e5e" stroke-width="2" fill="none"/><path d="M751.56 618.92v2.16l-1.33-.54.76-1.85z" stroke="#5e5e5e" stroke-width=".05" fill="#5e5e5e"/><path d="M656.74 581.23l14.95 1.1-3.52 8.58z" stroke="#5e5e5e" stroke-width="2" fill="#5e5e5e"/><path d="M750.58 620.2l-78.7 16.1" stroke="#5e5e5e" stroke-width="2" fill="none"/><path d="M751.56 621.02l-.8.16-.4-1.95 1.2-.25z" stroke="#5e5e5e" stroke-width=".05" fill="#5e5e5e"/><path d="M656.9 639.35l13.06-7.4 1.86 9.08z" stroke="#5e5e5e" stroke-width="2" fill="#5e5e5e"/><defs><path fill="#333" d="M80-196l47-18 7 23-49 13 32 44-20 13-27-46-27 45-21-12 33-44-49-13 8-23 47 19-2-53h23" id="m"/><path fill="#333" d="M33 0v-38h34V0H33" id="n"/><path fill="#333" d="M101-234c-31-9-42 10-38 44h38v23H63V0H32v-167H5v-23h27c-7-52 17-82 69-68v24" id="o"/><path fill="#333" d="M24-231v-30h32v30H24zM24 0v-190h32V0H24" id="p"/><path fill="#333" d="M85-194c31 0 48 13 60 33l-1-100h32l1 261h-30c-2-10 0-23-3-31C134-8 116 4 85 4 32 4 16-35 15-94c0-66 23-100 70-100zm9 24c-40 0-46 34-46 75 0 40 6 74 45 74 42 0 51-32 51-76 0-42-9-74-50-73" id="q"/><path fill="#333" d="M24 0v-261h32V0H24" id="r"/><g id="a"><use transform="matrix(0.06172839506172839,0,0,0.06172839506172839,0,0)" xlink:href="#m"/><use transform="matrix(0.06172839506172839,0,0,0.06172839506172839,8.641975308641975,0)" xlink:href="#n"/><use transform="matrix(0.06172839506172839,0,0,0.06172839506172839,14.814814814814813,0)" xlink:href="#o"/><use transform="matrix(0.06172839506172839,0,0,0.06172839506172839,20.98765432098765,0)" xlink:href="#p"/><use transform="matrix(0.06172839506172839,0,0,0.06172839506172839,25.864197530864196,0)" xlink:href="#q"/><use transform="matrix(0.06172839506172839,0,0,0.06172839506172839,38.20987654320987,0)" xlink:href="#r"/></g><path fill="#333" d="M115-194c55 1 70 41 70 98S169 2 115 4C84 4 66-9 55-30l1 105H24l-1-265h31l2 30c10-21 28-34 59-34zm-8 174c40 0 45-34 45-75s-6-73-45-74c-42 0-51 32-51 76 0 43 10 73 51 73" id="s"/><path fill="#333" d="M114-163C36-179 61-72 57 0H25l-1-190h30c1 12-1 29 2 39 6-27 23-49 58-41v29" id="t"/><path fill="#333" d="M100-194c62-1 85 37 85 99 1 63-27 99-86 99S16-35 15-95c0-66 28-99 85-99zM99-20c44 1 53-31 53-75 0-43-8-75-51-75s-53 32-53 75 10 74 51 75" id="u"/><path fill="#333" d="M59-47c-2 24 18 29 38 22v24C64 9 27 4 27-40v-127H5v-23h24l9-43h21v43h35v23H59v120" id="v"/><g id="b"><use transform="matrix(0.06172839506172839,0,0,0.06172839506172839,0,0)" xlink:href="#m"/><use transform="matrix(0.06172839506172839,0,0,0.06172839506172839,8.641975308641975,0)" xlink:href="#n"/><use transform="matrix(0.06172839506172839,0,0,0.06172839506172839,14.814814814814813,0)" xlink:href="#s"/><use transform="matrix(0.06172839506172839,0,0,0.06172839506172839,27.160493827160494,0)" xlink:href="#t"/><use transform="matrix(0.06172839506172839,0,0,0.06172839506172839,34.50617283950617,0)" xlink:href="#u"/><use transform="matrix(0.06172839506172839,0,0,0.06172839506172839,46.85185185185185,0)" xlink:href="#v"/><use transform="matrix(0.06172839506172839,0,0,0.06172839506172839,53.02469135802469,0)" xlink:href="#u"/></g><path fill="#333" d="M115-194c53 0 69 39 70 98 0 66-23 100-70 100C84 3 66-7 56-30L54 0H23l1-261h32v101c10-23 28-34 59-34zm-8 174c40 0 45-34 45-75 0-40-5-75-45-74-42 0-51 32-51 76 0 43 10 73 51 73" id="w"/><path fill="#333" d="M106-169C34-169 62-67 57 0H25v-261h32l-1 103c12-21 28-36 61-36 89 0 53 116 60 194h-32v-121c2-32-8-49-39-48" id="x"/><g id="c"><use transform="matrix(0.06172839506172839,0,0,0.06172839506172839,0,0)" xlink:href="#m"/><use transform="matrix(0.06172839506172839,0,0,0.06172839506172839,8.641975308641975,0)" xlink:href="#n"/><use transform="matrix(0.06172839506172839,0,0,0.06172839506172839,14.814814814814813,0)" xlink:href="#s"/><use transform="matrix(0.06172839506172839,0,0,0.06172839506172839,27.160493827160494,0)" xlink:href="#w"/><use transform="matrix(0.06172839506172839,0,0,0.06172839506172839,39.50617283950617,0)" xlink:href="#n"/><use transform="matrix(0.06172839506172839,0,0,0.06172839506172839,45.67901234567901,0)" xlink:href="#x"/></g><path fill="#333" d="M96-169c-40 0-48 33-48 73s9 75 48 75c24 0 41-14 43-38l32 2c-6 37-31 61-74 61-59 0-76-41-82-99-10-93 101-131 147-64 4 7 5 14 7 22l-32 3c-4-21-16-35-41-35" id="y"/><g id="d"><use transform="matrix(0.06172839506172839,0,0,0.06172839506172839,0,0)" xlink:href="#m"/><use transform="matrix(0.06172839506172839,0,0,0.06172839506172839,8.641975308641975,0)" xlink:href="#n"/><use transform="matrix(0.06172839506172839,0,0,0.06172839506172839,14.814814814814813,0)" xlink:href="#s"/><use transform="matrix(0.06172839506172839,0,0,0.06172839506172839,27.160493827160494,0)" xlink:href="#w"/><use transform="matrix(0.06172839506172839,0,0,0.06172839506172839,39.50617283950617,0)" xlink:href="#n"/><use transform="matrix(0.06172839506172839,0,0,0.06172839506172839,45.67901234567901,0)" xlink:href="#y"/><use transform="matrix(0.06172839506172839,0,0,0.06172839506172839,56.79012345679013,0)" xlink:href="#y"/></g><g id="e"><use transform="matrix(0.06172839506172839,0,0,0.06172839506172839,0,0)" xlink:href="#s"/><use transform="matrix(0.06172839506172839,0,0,0.06172839506172839,12.345679012345679,0)" xlink:href="#t"/><use transform="matrix(0.06172839506172839,0,0,0.06172839506172839,19.691358024691358,0)" xlink:href="#u"/><use transform="matrix(0.06172839506172839,0,0,0.06172839506172839,32.03703703703704,0)" xlink:href="#v"/><use transform="matrix(0.06172839506172839,0,0,0.06172839506172839,38.20987654320988,0)" xlink:href="#u"/><use transform="matrix(0.06172839506172839,0,0,0.06172839506172839,50.55555555555556,0)" xlink:href="#y"/></g><path fill="#333" d="M141-36C126-15 110 5 73 4 37 3 15-17 15-53c-1-64 63-63 125-63 3-35-9-54-41-54-24 1-41 7-42 31l-33-3c5-37 33-52 76-52 45 0 72 20 72 64v82c-1 20 7 32 28 27v20c-31 9-61-2-59-35zM48-53c0 20 12 33 32 33 41-3 63-29 60-74-43 2-92-5-92 41" id="z"/><path fill="#333" d="M141 0L90-78 38 0H4l68-98-65-92h35l48 74 47-74h35l-64 92 68 98h-35" id="A"/><path fill="#333" d="M16-82v-28h88v28H16" id="B"/><path fill="#333" d="M100-194c63 0 86 42 84 106H49c0 40 14 67 53 68 26 1 43-12 49-29l28 8c-11 28-37 45-77 45C44 4 14-33 15-96c1-61 26-98 85-98zm52 81c6-60-76-77-97-28-3 7-6 17-6 28h103" id="C"/><path fill="#333" d="M135-143c-3-34-86-38-87 0 15 53 115 12 119 90S17 21 10-45l28-5c4 36 97 45 98 0-10-56-113-15-118-90-4-57 82-63 122-42 12 7 21 19 24 35" id="D"/><g id="f"><use transform="matrix(0.06172839506172839,0,0,0.06172839506172839,0,0)" xlink:href="#y"/><use transform="matrix(0.06172839506172839,0,0,0.06172839506172839,11.11111111111111,0)" xlink:href="#z"/><use transform="matrix(0.06172839506172839,0,0,0.06172839506172839,23.45679012345679,0)" xlink:href="#s"/><use transform="matrix(0.06172839506172839,0,0,0.06172839506172839,35.80246913580247,0)" xlink:href="#p"/><use transform="matrix(0.06172839506172839,0,0,0.06172839506172839,40.67901234567901,0)" xlink:href="#y"/><use transform="matrix(0.06172839506172839,0,0,0.06172839506172839,51.79012345679013,0)" xlink:href="#A"/><use transform="matrix(0.06172839506172839,0,0,0.06172839506172839,62.90123456790124,0)" xlink:href="#A"/><use transform="matrix(0.06172839506172839,0,0,0.06172839506172839,74.01234567901236,0)" xlink:href="#B"/><use transform="matrix(0.06172839506172839,0,0,0.06172839506172839,81.35802469135804,0)" xlink:href="#y"/><use transform="matrix(0.06172839506172839,0,0,0.06172839506172839,92.46913580246915,0)" xlink:href="#u"/><use transform="matrix(0.06172839506172839,0,0,0.06172839506172839,104.81481481481484,0)" xlink:href="#t"/><use transform="matrix(0.06172839506172839,0,0,0.06172839506172839,112.16049382716052,0)" xlink:href="#C"/><use transform="matrix(0.06172839506172839,0,0,0.06172839506172839,124.5061728395062,0)" xlink:href="#B"/><use transform="matrix(0.06172839506172839,0,0,0.06172839506172839,131.85185185185188,0)" xlink:href="#v"/><use transform="matrix(0.06172839506172839,0,0,0.06172839506172839,138.0246913580247,0)" xlink:href="#u"/><use transform="matrix(0.06172839506172839,0,0,0.06172839506172839,150.37037037037038,0)" xlink:href="#u"/><use transform="matrix(0.06172839506172839,0,0,0.06172839506172839,162.71604938271605,0)" xlink:href="#r"/><use transform="matrix(0.06172839506172839,0,0,0.06172839506172839,167.59259259259258,0)" xlink:href="#D"/></g><path fill="#333" d="M117-194c89-4 53 116 60 194h-32v-121c0-31-8-49-39-48C34-167 62-67 57 0H25l-1-190h30c1 10-1 24 2 32 11-22 29-35 61-36" id="E"/><g id="g"><use transform="matrix(0.06172839506172839,0,0,0.06172839506172839,0,0)" xlink:href="#o"/><use transform="matrix(0.06172839506172839,0,0,0.06172839506172839,6.172839506172839,0)" xlink:href="#t"/><use transform="matrix(0.06172839506172839,0,0,0.06172839506172839,13.518518518518519,0)" xlink:href="#z"/><use transform="matrix(0.06172839506172839,0,0,0.06172839506172839,25.864197530864196,0)" xlink:href="#E"/><use transform="matrix(0.06172839506172839,0,0,0.06172839506172839,38.20987654320987,0)" xlink:href="#y"/><use transform="matrix(0.06172839506172839,0,0,0.06172839506172839,49.32098765432099,0)" xlink:href="#z"/><use transform="matrix(0.06172839506172839,0,0,0.06172839506172839,61.666666666666664,0)" xlink:href="#B"/><use transform="matrix(0.06172839506172839,0,0,0.06172839506172839,69.01234567901234,0)" xlink:href="#s"/><use transform="matrix(0.06172839506172839,0,0,0.06172839506172839,81.35802469135803,0)" xlink:href="#t"/><use transform="matrix(0.06172839506172839,0,0,0.06172839506172839,88.70370370370371,0)" xlink:href="#u"/><use transform="matrix(0.06172839506172839,0,0,0.06172839506172839,101.0493827160494,0)" xlink:href="#v"/><use transform="matrix(0.06172839506172839,0,0,0.06172839506172839,107.22222222222223,0)" xlink:href="#u"/><use transform="matrix(0.06172839506172839,0,0,0.06172839506172839,119.56790123456791,0)" xlink:href="#B"/><use transform="matrix(0.06172839506172839,0,0,0.06172839506172839,126.9135802469136,0)" xlink:href="#v"/><use transform="matrix(0.06172839506172839,0,0,0.06172839506172839,133.08641975308643,0)" xlink:href="#u"/><use transform="matrix(0.06172839506172839,0,0,0.06172839506172839,145.4320987654321,0)" xlink:href="#u"/><use transform="matrix(0.06172839506172839,0,0,0.06172839506172839,157.77777777777777,0)" xlink:href="#r"/><use transform="matrix(0.06172839506172839,0,0,0.06172839506172839,162.6543209876543,0)" xlink:href="#D"/></g><g id="h"><use transform="matrix(0.06172839506172839,0,0,0.06172839506172839,0,0)" xlink:href="#y"/><use transform="matrix(0.06172839506172839,0,0,0.06172839506172839,11.11111111111111,0)" xlink:href="#z"/><use transform="matrix(0.06172839506172839,0,0,0.06172839506172839,23.45679012345679,0)" xlink:href="#s"/><use transform="matrix(0.06172839506172839,0,0,0.06172839506172839,35.80246913580247,0)" xlink:href="#p"/><use transform="matrix(0.06172839506172839,0,0,0.06172839506172839,40.67901234567901,0)" xlink:href="#y"/><use transform="matrix(0.06172839506172839,0,0,0.06172839506172839,51.79012345679013,0)" xlink:href="#A"/><use transform="matrix(0.06172839506172839,0,0,0.06172839506172839,62.90123456790124,0)" xlink:href="#A"/><use transform="matrix(0.06172839506172839,0,0,0.06172839506172839,74.01234567901236,0)" xlink:href="#B"/><use transform="matrix(0.06172839506172839,0,0,0.06172839506172839,81.35802469135804,0)" xlink:href="#s"/><use transform="matrix(0.06172839506172839,0,0,0.06172839506172839,93.70370370370372,0)" xlink:href="#t"/><use transform="matrix(0.06172839506172839,0,0,0.06172839506172839,101.04938271604941,0)" xlink:href="#u"/><use transform="matrix(0.06172839506172839,0,0,0.06172839506172839,113.39506172839509,0)" xlink:href="#v"/><use transform="matrix(0.06172839506172839,0,0,0.06172839506172839,119.56790123456793,0)" xlink:href="#u"/><use transform="matrix(0.06172839506172839,0,0,0.06172839506172839,131.9135802469136,0)" xlink:href="#B"/><use transform="matrix(0.06172839506172839,0,0,0.06172839506172839,139.25925925925927,0)" xlink:href="#v"/><use transform="matrix(0.06172839506172839,0,0,0.06172839506172839,145.4320987654321,0)" xlink:href="#u"/><use transform="matrix(0.06172839506172839,0,0,0.06172839506172839,157.77777777777777,0)" xlink:href="#u"/><use transform="matrix(0.06172839506172839,0,0,0.06172839506172839,170.12345679012344,0)" xlink:href="#r"/><use transform="matrix(0.06172839506172839,0,0,0.06172839506172839,174.99999999999997,0)" xlink:href="#D"/></g><g id="i"><use transform="matrix(0.06172839506172839,0,0,0.06172839506172839,0,0)" xlink:href="#m"/><use transform="matrix(0.06172839506172839,0,0,0.06172839506172839,8.641975308641975,0)" xlink:href="#n"/><use transform="matrix(0.06172839506172839,0,0,0.06172839506172839,14.814814814814813,0)" xlink:href="#p"/><use transform="matrix(0.06172839506172839,0,0,0.06172839506172839,19.691358024691354,0)" xlink:href="#p"/><use transform="matrix(0.06172839506172839,0,0,0.06172839506172839,24.5679012345679,0)" xlink:href="#q"/><use transform="matrix(0.06172839506172839,0,0,0.06172839506172839,36.913580246913575,0)" xlink:href="#r"/></g><path fill="#333" d="M185-189c-5-48-123-54-124 2 14 75 158 14 163 119 3 78-121 87-175 55-17-10-28-26-33-46l33-7c5 56 141 63 141-1 0-78-155-14-162-118-5-82 145-84 179-34 5 7 8 16 11 25" id="F"/><path fill="#333" d="M84 4C-5 8 30-112 23-190h32v120c0 31 7 50 39 49 72-2 45-101 50-169h31l1 190h-30c-1-10 1-25-2-33-11 22-28 36-60 37" id="G"/><g id="j"><use transform="matrix(0.06172839506172839,0,0,0.06172839506172839,0,0)" xlink:href="#m"/><use transform="matrix(0.06172839506172839,0,0,0.06172839506172839,8.641975308641975,0)" xlink:href="#F"/><use transform="matrix(0.06172839506172839,0,0,0.06172839506172839,23.456790123456788,0)" xlink:href="#v"/><use transform="matrix(0.06172839506172839,0,0,0.06172839506172839,29.629629629629626,0)" xlink:href="#G"/><use transform="matrix(0.06172839506172839,0,0,0.06172839506172839,41.9753086419753,0)" xlink:href="#w"/><use transform="matrix(0.06172839506172839,0,0,0.06172839506172839,54.32098765432098,0)" xlink:href="#n"/><use transform="matrix(0.06172839506172839,0,0,0.06172839506172839,60.49382716049382,0)" xlink:href="#x"/><use transform="matrix(0.06172839506172839,0,0,0.06172839506172839,72.8395061728395,0)" xlink:href="#s"/><use transform="matrix(0.06172839506172839,0,0,0.06172839506172839,85.18518518518519,0)" xlink:href="#s"/></g><path fill="#333" d="M30-248c87 1 191-15 191 75 0 78-77 80-158 76V0H30v-248zm33 125c57 0 124 11 124-50 0-59-68-47-124-48v98" id="H"/><path fill="#333" d="M179-190L93 31C79 59 56 82 12 73V49c39 6 53-20 64-50L1-190h34L92-34l54-156h33" id="I"/><g id="k"><use transform="matrix(0.06172839506172839,0,0,0.06172839506172839,0,0)" xlink:href="#m"/><use transform="matrix(0.06172839506172839,0,0,0.06172839506172839,8.641975308641975,0)" xlink:href="#H"/><use transform="matrix(0.06172839506172839,0,0,0.06172839506172839,23.456790123456788,0)" xlink:href="#t"/><use transform="matrix(0.06172839506172839,0,0,0.06172839506172839,30.80246913580247,0)" xlink:href="#u"/><use transform="matrix(0.06172839506172839,0,0,0.06172839506172839,43.148148148148145,0)" xlink:href="#A"/><use transform="matrix(0.06172839506172839,0,0,0.06172839506172839,54.25925925925925,0)" xlink:href="#I"/><use transform="matrix(0.06172839506172839,0,0,0.06172839506172839,63.7037037037037,0)" xlink:href="#n"/><use transform="matrix(0.06172839506172839,0,0,0.06172839506172839,69.87654320987653,0)" xlink:href="#x"/><use transform="matrix(0.06172839506172839,0,0,0.06172839506172839,82.22222222222221,0)" xlink:href="#s"/><use transform="matrix(0.06172839506172839,0,0,0.06172839506172839,94.5679012345679,0)" xlink:href="#s"/></g><path fill="#333" d="M24-248c93 1 206-16 204 79-1 75-69 88-152 82V0H24v-248zm52 121c47 0 100 7 100-41 0-47-54-39-100-39v80" id="J"/><path fill="#333" d="M135-150c-39-12-60 13-60 57V0H25l-1-190h47c2 13-1 29 3 40 6-28 27-53 61-41v41" id="K"/><path fill="#333" d="M110-194c64 0 96 36 96 99 0 64-35 99-97 99-61 0-95-36-95-99 0-62 34-99 96-99zm-1 164c35 0 45-28 45-65 0-40-10-65-43-65-34 0-45 26-45 65 0 36 10 65 43 65" id="L"/><path fill="#333" d="M144 0l-44-69L55 0H2l70-98-66-92h53l41 62 40-62h54l-67 91 71 99h-54" id="M"/><path fill="#333" d="M123 10C108 53 80 86 19 72V37c35 8 53-11 59-39L3-190h52l48 148c12-52 28-100 44-148h51" id="N"/><g id="l"><use transform="matrix(0.06172839506172839,0,0,0.06172839506172839,0,0)" xlink:href="#J"/><use transform="matrix(0.06172839506172839,0,0,0.06172839506172839,14.814814814814813,0)" xlink:href="#K"/><use transform="matrix(0.06172839506172839,0,0,0.06172839506172839,23.456790123456788,0)" xlink:href="#L"/><use transform="matrix(0.06172839506172839,0,0,0.06172839506172839,36.9753086419753,0)" xlink:href="#M"/><use transform="matrix(0.06172839506172839,0,0,0.06172839506172839,49.32098765432098,0)" xlink:href="#N"/></g></defs></g></svg>