<svg xmlns="http://www.w3.org/2000/svg" xmlns:xlink="http://www.w3.org/1999/xlink" xmlns:lucid="lucid" width="1090" height="722"><g transform="translate(-379 -260)" lucid:page-tab-id="0_0"><path d="M667.2 350a10 10 0 0 1 10-10h160a10 10 0 0 1 10 10v110a10 10 0 0 1-10 10h-160a10 10 0 0 1-10-10z" stroke="#5e5e5e" stroke-width="3" fill-opacity="0"/><path d="M748.83 400c0 5.52-4.47 10-10 10-5.52 0-10-4.48-10-10s4.48-10 10-10c5.53 0 10 4.48 10 10zM828.83 400c0 5.52-4.47 10-10 10-5.52 0-10-4.48-10-10s4.48-10 10-10c5.53 0 10 4.48 10 10zM788.83 360c0 5.52-4.47 10-10 10-5.52 0-10-4.48-10-10s4.48-10 10-10c5.53 0 10 4.48 10 10z" stroke="#5e5e5e" stroke-width="3" fill="#f2f3f5"/><path d="M788.83 440c0 5.52-4.47 10-10 10-5.52 0-10-4.48-10-10s4.48-10 10-10c5.53 0 10 4.48 10 10zM708.83 440c0 5.52-4.47 10-10 10-5.52 0-10-4.48-10-10s4.48-10 10-10c5.53 0 10 4.48 10 10z" stroke="#5e5e5e" stroke-width="3" fill="#ffd9d9"/><path d="M787.92 368.42l22.45 22.44" stroke="#5e5e5e" stroke-width="2" fill="none"/><path d="M788.65 367.73l-1.4 1.42-.74-.73 1.42-1.4zM811.87 390.95l-1.18.9-.33.43-.73-.73 1.4-1.4z" stroke="#5e5e5e" stroke-width=".05" fill="#5e5e5e"/><path d="M769.13 367.8l-21.1 23.82" stroke="#5e5e5e" stroke-width="2" fill="none"/><path d="M769.54 366.8l.96.96-.64.72-1.5-1.32.86-.98zM748.8 392.27l-.8.9-1.02-1.3-.3-.24.62-.7z" stroke="#5e5e5e" stroke-width=".05" fill="#5e5e5e"/><path d="M747.9 408.45l22.44 22.43" stroke="#5e5e5e" stroke-width="2" fill="none"/><path d="M748.63 407.76l-1.42 1.4-.72-.7 1.42-1.43zM771.84 430.98l-1.15.88-.35.45-.74-.73 1.42-1.4z" stroke="#5e5e5e" stroke-width=".05" fill="#5e5e5e"/><path d="M729.4 408.07l-21.14 23.85" stroke="#5e5e5e" stroke-width="2" fill="none"/><path d="M729.54 406.8l1.23 1.24-.64.72-1.5-1.33.78-.88zM709.02 432.56l-.8.9-1.25-1.6.55-.63z" stroke="#5e5e5e" stroke-width=".05" fill="#5e5e5e"/><path d="M683.12 356.08a6 6 0 0 1 6-6h53.7a6 6 0 0 1 6 6V374a6 6 0 0 1-6 6h-53.7a6 6 0 0 1-6-6z" stroke="#000" stroke-opacity="0" stroke-width="3" fill="#fff" fill-opacity="0"/><use xlink:href="#a" transform="matrix(1,0,0,1,688.1211550628939,355.0788867548958) translate(10.160493827160494 19.02777777777778)"/><path d="M828.83 440c0 5.52-4.47 10-10 10-5.52 0-10-4.48-10-10s4.48-10 10-10c5.53 0 10 4.48 10 10z" stroke="#5e5e5e" stroke-width="3" fill="#ffd9d9"/><path d="M818.83 412.52v14.97" stroke="#5e5e5e" stroke-width="2" fill="none"/><path d="M818.83 411.52l1-.16v1.2h-2v-1.2zM819.83 428.62l-1-.13-1 .12v-1.16h2z" stroke="#5e5e5e" stroke-width=".05" fill="#5e5e5e"/><path d="M1013.3 350a10 10 0 0 1 10-10h160a10 10 0 0 1 10 10v110a10 10 0 0 1-10 10h-160a10 10 0 0 1-10-10z" stroke="#5e5e5e" stroke-width="3" fill-opacity="0"/><path d="M1088.83 400c0 5.52-4.47 10-10 10-5.52 0-10-4.48-10-10s4.48-10 10-10c5.53 0 10 4.48 10 10zM1168.83 400c0 5.52-4.47 10-10 10-5.52 0-10-4.48-10-10s4.48-10 10-10c5.53 0 10 4.48 10 10zM1128.83 360c0 5.52-4.47 10-10 10-5.52 0-10-4.48-10-10s4.48-10 10-10c5.53 0 10 4.48 10 10z" stroke="#5e5e5e" stroke-width="3" fill="#f2f3f5"/><path d="M1128.83 400c0 5.52-4.47 10-10 10-5.52 0-10-4.48-10-10s4.48-10 10-10c5.53 0 10 4.48 10 10zM1088.83 440c0 5.52-4.47 10-10 10-5.52 0-10-4.48-10-10s4.48-10 10-10c5.53 0 10 4.48 10 10z" stroke="#5e5e5e" stroke-width="3" fill="#cfe4ff"/><path d="M1127.92 368.42l22.44 22.44" stroke="#5e5e5e" stroke-width="2" fill="none"/><path d="M1128.65 367.73l-1.4 1.42-.74-.73 1.42-1.4zM1151.87 390.95l-1.18.9-.33.43-.73-.73 1.4-1.4z" stroke="#5e5e5e" stroke-width=".05" fill="#5e5e5e"/><path d="M1109.13 367.8l-21.1 23.82" stroke="#5e5e5e" stroke-width="2" fill="none"/><path d="M1109.54 366.8l.96.96-.64.72-1.5-1.32.86-.98zM1088.8 392.27l-.8.9-1.03-1.3-.3-.24.63-.7z" stroke="#5e5e5e" stroke-width=".05" fill="#5e5e5e"/><path d="M1118.83 372.52v14.97" stroke="#5e5e5e" stroke-width="2" fill="none"/><path d="M1119.83 372.55h-2v-1.2l1 .17 1-.16zM1119.83 388.62l-1-.13-1 .12v-1.16h2z" stroke="#5e5e5e" stroke-width=".05" fill="#5e5e5e"/><path d="M1078.83 412.52v14.97" stroke="#5e5e5e" stroke-width="2" fill="none"/><path d="M1078.83 411.52l1-.16v1.2h-2v-1.2zM1079.83 428.62l-1-.13-1 .12v-1.16h2z" stroke="#5e5e5e" stroke-width=".05" fill="#5e5e5e"/><path d="M1023.12 356.08a6 6 0 0 1 6-6h53.7a6 6 0 0 1 6 6V374a6 6 0 0 1-6 6h-53.7a6 6 0 0 1-6-6z" stroke="#000" stroke-opacity="0" stroke-width="3" fill="#fff" fill-opacity="0"/><use xlink:href="#b" transform="matrix(1,0,0,1,1028.1211550628939,355.07888675489556) translate(9.512345679012348 19.02777777777778)"/><path d="M1168.83 440c0 5.52-4.47 10-10 10-5.52 0-10-4.48-10-10s4.48-10 10-10c5.53 0 10 4.48 10 10z" stroke="#5e5e5e" stroke-width="3" fill="#cfe4ff"/><path d="M1158.83 412.52v14.97" stroke="#5e5e5e" stroke-width="2" fill="none"/><path d="M1158.83 411.52l1-.16v1.2h-2v-1.2zM1159.83 428.62l-1-.13-1 .12v-1.16h2z" stroke="#5e5e5e" stroke-width=".05" fill="#5e5e5e"/><path d="M1128.83 440c0 5.52-4.47 10-10 10-5.52 0-10-4.48-10-10s4.48-10 10-10c5.53 0 10 4.48 10 10z" stroke="#5e5e5e" stroke-width="3" fill="#cfe4ff"/><path d="M1149.8 408.48l-22.43 22.43" stroke="#5e5e5e" stroke-width="2" fill="none"/><path d="M1151.2 408.48l-.7.72-1.43-1.4.73-.74zM1128.1 431.6l-.75.74-.38-.48-1.1-.86.8-.82z" stroke="#5e5e5e" stroke-width=".05" fill="#5e5e5e"/><path d="M748.83 440c0 5.52-4.47 10-10 10-5.52 0-10-4.48-10-10s4.48-10 10-10c5.53 0 10 4.48 10 10z" stroke="#5e5e5e" stroke-width="3" fill="#ffd9d9"/><path d="M738.83 412.52v14.97" stroke="#5e5e5e" stroke-width="2" fill="none"/><path d="M738.83 411.52l1-.16v1.2h-2v-1.2zM739.83 428.62l-1-.13-1 .12v-1.16h2z" stroke="#5e5e5e" stroke-width=".05" fill="#5e5e5e"/><path d="M1048.83 440c0 5.52-4.47 10-10 10-5.52 0-10-4.48-10-10s4.48-10 10-10c5.53 0 10 4.48 10 10z" stroke="#5e5e5e" stroke-width="3" fill="#cfe4ff"/><path d="M1068.6 407.07l-22.7 22.7" stroke="#5e5e5e" stroke-width="2" fill="none"/><path d="M1069.54 406.8l.37.38-.6.62-1.42-1.42.95-.95zM1046.62 430.47l-.63.63-1.42-1.08-.24-.1.87-.87z" stroke="#5e5e5e" stroke-width=".05" fill="#5e5e5e"/><path d="M886.12 370a10 10 0 0 1 10-10h68.27a10 10 0 0 1 10 10v70a10 10 0 0 1-10 10H896.1a10 10 0 0 1-10-10z" stroke="#5e5e5e" stroke-width="3" fill="#e3fae3"/><use xlink:href="#c" transform="matrix(1,0,0,1,898.1199137004216,371.99999999999994) translate(-2.5648148148148096 36.611111111111114)"/><path d="M976.9 405h16.4" stroke="#5e5e5e" stroke-width="2" fill="none"/><path d="M976.9 406h-1v-2h1z" stroke="#5e5e5e" stroke-width=".05" fill="#5e5e5e"/><path d="M1008.58 405l-14.27 4.63v-9.26z" stroke="#5e5e5e" stroke-width="2" fill="#5e5e5e"/><path d="M849.7 405h16.42" stroke="#5e5e5e" stroke-width="2" fill="none"/><path d="M849.72 406h-1.03v-2h1.02z" stroke="#5e5e5e" stroke-width=".05" fill="#5e5e5e"/><path d="M881.38 405l-14.26 4.63v-9.26z" stroke="#5e5e5e" stroke-width="2" fill="#5e5e5e"/><path d="M616.63 405h30.56M616.66 405h-1.03" stroke="#5e5e5e" stroke-width="2" fill="none"/><path d="M662.46 405l-14.27 4.63v-9.26z" stroke="#5e5e5e" stroke-width="2" fill="#5e5e5e"/><path d="M840.25 530a10 10 0 0 1 10-10h160a10 10 0 0 1 10 10v110a10 10 0 0 1-10 10h-160a10 10 0 0 1-10-10z" stroke="#5e5e5e" stroke-width="3" fill-opacity="0"/><path d="M880.25 570c0 5.52-4.47 10-10 10-5.52 0-10-4.48-10-10s4.48-10 10-10c5.53 0 10 4.48 10 10zM880.25 600c0 5.52-4.47 10-10 10-5.52 0-10-4.48-10-10s4.48-10 10-10c5.53 0 10 4.48 10 10zM880.25 630c0 5.52-4.47 10-10 10-5.52 0-10-4.48-10-10s4.48-10 10-10c5.53 0 10 4.48 10 10z" stroke="#5e5e5e" stroke-width="3" fill="#ffd9d9"/><path d="M1000.25 570c0 5.52-4.47 10-10 10-5.52 0-10-4.48-10-10s4.48-10 10-10c5.53 0 10 4.48 10 10zM1000.25 600c0 5.52-4.47 10-10 10-5.52 0-10-4.48-10-10s4.48-10 10-10c5.53 0 10 4.48 10 10zM1000.25 630c0 5.52-4.47 10-10 10-5.52 0-10-4.48-10-10s4.48-10 10-10c5.53 0 10 4.48 10 10z" stroke="#5e5e5e" stroke-width="3" fill="#cfe4ff"/><path d="M882.77 600h41.48a6 6 0 0 0 6-6v-18a6 6 0 0 1 6-6h24" stroke="#5e5e5e" stroke-width="2" fill="none"/><path d="M882.8 601h-1.2l.17-.98-.13-1.02h1.15z" stroke="#5e5e5e" stroke-width=".05" fill="#5e5e5e"/><path d="M975.5 570l-14.26 4.63v-9.26z" stroke="#5e5e5e" stroke-width="2" fill="#5e5e5e"/><path d="M882.77 570h21.48a6 6 0 0 1 6 6v48a6 6 0 0 0 6 6h44" stroke="#5e5e5e" stroke-width="2" fill="none"/><path d="M882.8 571h-1.2l.17-.98-.13-1.02h1.15z" stroke="#5e5e5e" stroke-width=".05" fill="#5e5e5e"/><path d="M975.5 630l-14.26 4.63v-9.26z" stroke="#5e5e5e" stroke-width="2" fill="#5e5e5e"/><path d="M882.77 630h51.48a6 6 0 0 0 6-6v-18a6 6 0 0 1 6-6h14" stroke="#5e5e5e" stroke-width="2" fill="none"/><path d="M882.8 631h-1.2l.17-.98-.13-1.02h1.15z" stroke="#5e5e5e" stroke-width=".05" fill="#5e5e5e"/><path d="M975.5 600l-14.26 4.63v-9.26z" stroke="#5e5e5e" stroke-width="2" fill="#5e5e5e"/><path d="M897.4 536.08a6 6 0 0 1 6-6h53.7a6 6 0 0 1 6 6V554a6 6 0 0 1-6 6h-53.7a6 6 0 0 1-6-6z" stroke="#000" stroke-opacity="0" stroke-width="3" fill="#fff" fill-opacity="0"/><use xlink:href="#d" transform="matrix(1,0,0,1,902.3974812886958,535.0788867548956) translate(7.691358024691361 19.02777777777778)"/><path d="M930.25 452.5V500" stroke="#5e5e5e" stroke-width="2" fill="none"/><path d="M931.25 452.53h-2v-1.03h2z" stroke="#5e5e5e" stroke-width=".05" fill="#5e5e5e"/><path d="M930.25 515.26L925.62 501h9.27z" stroke="#5e5e5e" stroke-width="2" fill="#5e5e5e"/><path d="M540 370a10 10 0 0 1 10-10h68.27a10 10 0 0 1 10 10v70a10 10 0 0 1-10 10H550a10 10 0 0 1-10-10z" stroke="#5e5e5e" stroke-width="3" fill="#e3fae3"/><use xlink:href="#e" transform="matrix(1,0,0,1,552,371.99999999999994) translate(12.212962962962969 37.56944444444444)"/><path d="M689.17 585h-99.04a6 6 0 0 1-6-6V470" stroke="#5e5e5e" stroke-width="2" fill="none"/><path d="M690.17 586h-1.02v-2h1.02z" stroke="#5e5e5e" stroke-width=".05" fill="#5e5e5e"/><path d="M584.13 454.74l4.64 14.26h-9.27z" stroke="#5e5e5e" stroke-width="2" fill="#5e5e5e"/><path d="M1232.24 370a10 10 0 0 1 10-10h68.27a10 10 0 0 1 10 10v70a10 10 0 0 1-10 10h-68.26a10 10 0 0 1-10-10z" stroke="#5e5e5e" stroke-width="3" fill="#f2f3f5"/><use xlink:href="#f" transform="matrix(1,0,0,1,1244.2398274008433,371.99999999999994) translate(0.11419753086420315 37.56944444444444)"/><path d="M1195.8 405h16.44" stroke="#5e5e5e" stroke-width="2" fill="none"/><path d="M1195.84 406h-1.03v-2h1.04z" stroke="#5e5e5e" stroke-width=".05" fill="#5e5e5e"/><path d="M1227.5 405l-14.26 4.63v-9.26z" stroke="#5e5e5e" stroke-width="2" fill="#5e5e5e"/><path d="M1276.37 452.5V579a6 6 0 0 1-6 6h-81.53" stroke="#5e5e5e" stroke-width="2" fill="none"/><path d="M1277.37 452.53h-2v-1.03h2z" stroke="#5e5e5e" stroke-width=".05" fill="#5e5e5e"/><path d="M1173.57 585l14.27-4.63v9.26z" stroke="#5e5e5e" stroke-width="2" fill="#5e5e5e"/><path d="M1080.57 720a10 10 0 0 1 10-10h68.26a10 10 0 0 1 10 10v70a10 10 0 0 1-10 10h-68.26a10 10 0 0 1-10-10z" stroke="#5e5e5e" stroke-width="3" fill="#f2f3f5"/><use xlink:href="#g" transform="matrix(1,0,0,1,1092.5660198863457,721.9999999999998) translate(4.867283950617292 37.56944444444444)"/><path d="M1124.7 604.96V690" stroke="#5e5e5e" stroke-width="2" fill="none"/><path d="M1125.7 605h-2v-1.04h2z" stroke="#5e5e5e" stroke-width=".05" fill="#5e5e5e"/><path d="M1124.7 705.26l-4.63-14.26h9.27z" stroke="#5e5e5e" stroke-width="2" fill="#5e5e5e"/><path d="M691.67 720a10 10 0 0 1 10-10h68.27a10 10 0 0 1 10 10v70a10 10 0 0 1-10 10h-68.27a10 10 0 0 1-10-10z" stroke="#5e5e5e" stroke-width="3" fill="#f2f3f5"/><use xlink:href="#h" transform="matrix(1,0,0,1,703.6738075144976,721.9999999999998) translate(0.5462962962963047 37.56944444444444)"/><path d="M886.12 720a10 10 0 0 1 10-10h68.27a10 10 0 0 1 10 10v70a10 10 0 0 1-10 10H896.1a10 10 0 0 1-10-10z" stroke="#5e5e5e" stroke-width="3" fill="#f2f3f5"/><use xlink:href="#f" transform="matrix(1,0,0,1,898.1199137004216,721.9999999999998) translate(0.11419753086420315 37.56944444444444)"/><path d="M930.25 652.5V690" stroke="#5e5e5e" stroke-width="2" fill="none"/><path d="M931.25 652.53h-2v-1.03h2z" stroke="#5e5e5e" stroke-width=".05" fill="#5e5e5e"/><path d="M930.25 705.26L925.62 691h9.27z" stroke="#5e5e5e" stroke-width="2" fill="#5e5e5e"/><path d="M1080.57 577.54a10 10 0 0 1 10-10h68.26a10 10 0 0 1 10 10v14.92a10 10 0 0 1-10 10h-68.26a10 10 0 0 1-10-10z" stroke="#5e5e5e" stroke-width="3" fill="#cfe4ff"/><use xlink:href="#i" transform="matrix(1,0,0,1,1092.5660198863457,579.5377430019746) translate(13.941358024691361 12.444444444444443)"/><path d="M691.67 577.54a10 10 0 0 1 10-10h68.27a10 10 0 0 1 10 10v14.92a10 10 0 0 1-10 10h-68.27a10 10 0 0 1-10-10z" stroke="#5e5e5e" stroke-width="3" fill="#ffd9d9"/><use xlink:href="#j" transform="matrix(1,0,0,1,703.6738075144976,579.5377430019746) translate(8.345679012345684 12.444444444444443)"/><path d="M1080.57 870a10 10 0 0 1 10-10h68.26a10 10 0 0 1 10 10v14.92a10 10 0 0 1-10 10h-68.26a10 10 0 0 1-10-10z" stroke="#5e5e5e" stroke-width="3" fill="#cfe4ff"/><use xlink:href="#k" transform="matrix(1,0,0,1,1092.5660198863457,871.9999999999995) translate(3.138888888888893 12.444444444444443)"/><use xlink:href="#l" transform="matrix(1,0,0,1,1092.5660198863457,871.9999999999995) translate(36.79938271604938 12.444444444444443)"/><path d="M691.67 870a10 10 0 0 1 10-10h68.27a10 10 0 0 1 10 10v14.92a10 10 0 0 1-10 10h-68.27a10 10 0 0 1-10-10z" stroke="#5e5e5e" stroke-width="3" fill="#ffdda6"/><use xlink:href="#k" transform="matrix(1,0,0,1,703.6738075144976,871.9999999999995) translate(3.138888888888893 12.444444444444443)"/><use xlink:href="#l" transform="matrix(1,0,0,1,703.6738075144976,871.9999999999995) translate(36.79938271604938 12.444444444444443)"/><path d="M880.9 870a10 10 0 0 1 10-10h78.7a10 10 0 0 1 10 10v14.92a10 10 0 0 1-10 10h-78.7a10 10 0 0 1-10-10z" stroke="#5e5e5e" stroke-width="3" fill="#f2f3f5"/><use xlink:href="#k" transform="matrix(1,0,0,1,892.9125153681109,871.9999999999995) translate(0.8148148148148238 12.444444444444443)"/><use xlink:href="#m" transform="matrix(1,0,0,1,892.9125153681109,871.9999999999995) translate(34.47530864197531 12.444444444444443)"/><path d="M930.25 802.5V840" stroke="#5e5e5e" stroke-width="2" fill="none"/><path d="M931.25 802.53h-2v-1.03h2z" stroke="#5e5e5e" stroke-width=".05" fill="#5e5e5e"/><path d="M930.25 855.26L925.62 841h9.27z" stroke="#5e5e5e" stroke-width="2" fill="#5e5e5e"/><path d="M735.8 604.96V690" stroke="#5e5e5e" stroke-width="2" fill="none"/><path d="M736.8 605h-2v-1.04h2z" stroke="#5e5e5e" stroke-width=".05" fill="#5e5e5e"/><path d="M735.8 705.26L731.18 691h9.27z" stroke="#5e5e5e" stroke-width="2" fill="#5e5e5e"/><path d="M1124.7 802.5V840" stroke="#5e5e5e" stroke-width="2" fill="none"/><path d="M1125.7 802.53h-2v-1.03h2z" stroke="#5e5e5e" stroke-width=".05" fill="#5e5e5e"/><path d="M1124.7 855.26l-4.63-14.26h9.27z" stroke="#5e5e5e" stroke-width="2" fill="#5e5e5e"/><path d="M735.8 802.5V840" stroke="#5e5e5e" stroke-width="2" fill="none"/><path d="M736.8 802.53h-2v-1.03h2z" stroke="#5e5e5e" stroke-width=".05" fill="#5e5e5e"/><path d="M735.8 855.26L731.18 841h9.27z" stroke="#5e5e5e" stroke-width="2" fill="#5e5e5e"/><path d="M982.1 877.46h95.97" stroke="#5e5e5e" stroke-width="2" fill="none"/><path d="M982.12 878.46h-1.02v-2h1.02zM1079.07 878.46h-1.03v-2h1.03z" stroke="#5e5e5e" stroke-width=".05" fill="#5e5e5e"/><path d="M878.4 877.46h-95.96" stroke="#5e5e5e" stroke-width="2" fill="none"/><path d="M879.4 878.46h-1v-2h1zM782.47 878.46h-1.03v-2h1.03z" stroke="#5e5e5e" stroke-width=".05" fill="#5e5e5e"/><defs><path fill="#333" d="M76-208v77h127v40H76V0H24v-248h183v40H76" id="n"/><path fill="#333" d="M24 0v-248h52V0H24" id="o"/><path fill="#333" d="M240-174c0 40-23 61-54 70L253 0h-59l-57-94H76V0H24v-248c93 4 217-23 216 74zM76-134c48-2 112 12 112-38 0-48-66-32-112-35v73" id="p"/><g id="a"><use transform="matrix(0.06172839506172839,0,0,0.06172839506172839,0,0)" xlink:href="#n"/><use transform="matrix(0.06172839506172839,0,0,0.06172839506172839,13.518518518518517,0)" xlink:href="#o"/><use transform="matrix(0.06172839506172839,0,0,0.06172839506172839,19.691358024691358,0)" xlink:href="#p"/></g><path fill="#333" d="M24-248c93 1 206-16 204 79-1 75-69 88-152 82V0H24v-248zm52 121c47 0 100 7 100-41 0-47-54-39-100-39v80" id="q"/><g id="b"><use transform="matrix(0.06172839506172839,0,0,0.06172839506172839,0,0)" xlink:href="#q"/><use transform="matrix(0.06172839506172839,0,0,0.06172839506172839,14.814814814814813,0)" xlink:href="#o"/><use transform="matrix(0.06172839506172839,0,0,0.06172839506172839,20.98765432098765,0)" xlink:href="#p"/></g><path fill="#333" d="M127-220V0H93v-220H8v-28h204v28h-85" id="r"/><path fill="#333" d="M114-163C36-179 61-72 57 0H25l-1-190h30c1 12-1 29 2 39 6-27 23-49 58-41v29" id="s"/><path fill="#333" d="M141-36C126-15 110 5 73 4 37 3 15-17 15-53c-1-64 63-63 125-63 3-35-9-54-41-54-24 1-41 7-42 31l-33-3c5-37 33-52 76-52 45 0 72 20 72 64v82c-1 20 7 32 28 27v20c-31 9-61-2-59-35zM48-53c0 20 12 33 32 33 41-3 63-29 60-74-43 2-92-5-92 41" id="t"/><path fill="#333" d="M117-194c89-4 53 116 60 194h-32v-121c0-31-8-49-39-48C34-167 62-67 57 0H25l-1-190h30c1 10-1 24 2 32 11-22 29-35 61-36" id="u"/><path fill="#333" d="M135-143c-3-34-86-38-87 0 15 53 115 12 119 90S17 21 10-45l28-5c4 36 97 45 98 0-10-56-113-15-118-90-4-57 82-63 122-42 12 7 21 19 24 35" id="v"/><path fill="#333" d="M101-234c-31-9-42 10-38 44h38v23H63V0H32v-167H5v-23h27c-7-52 17-82 69-68v24" id="w"/><path fill="#333" d="M100-194c62-1 85 37 85 99 1 63-27 99-86 99S16-35 15-95c0-66 28-99 85-99zM99-20c44 1 53-31 53-75 0-43-8-75-51-75s-53 32-53 75 10 74 51 75" id="x"/><path fill="#333" d="M210-169c-67 3-38 105-44 169h-31v-121c0-29-5-50-35-48C34-165 62-65 56 0H25l-1-190h30c1 10-1 24 2 32 10-44 99-50 107 0 11-21 27-35 58-36 85-2 47 119 55 194h-31v-121c0-29-5-49-35-48" id="y"/><g id="c"><use transform="matrix(0.04320987654320987,0,0,0.04320987654320987,0,0)" xlink:href="#r"/><use transform="matrix(0.04320987654320987,0,0,0.04320987654320987,8.901234567901232,0)" xlink:href="#s"/><use transform="matrix(0.04320987654320987,0,0,0.04320987654320987,14.043209876543207,0)" xlink:href="#t"/><use transform="matrix(0.04320987654320987,0,0,0.04320987654320987,22.68518518518518,0)" xlink:href="#u"/><use transform="matrix(0.04320987654320987,0,0,0.04320987654320987,31.327160493827147,0)" xlink:href="#v"/><use transform="matrix(0.04320987654320987,0,0,0.04320987654320987,39.10493827160493,0)" xlink:href="#w"/><use transform="matrix(0.04320987654320987,0,0,0.04320987654320987,43.42592592592592,0)" xlink:href="#x"/><use transform="matrix(0.04320987654320987,0,0,0.04320987654320987,52.06790123456789,0)" xlink:href="#s"/><use transform="matrix(0.04320987654320987,0,0,0.04320987654320987,57.209876543209866,0)" xlink:href="#y"/></g><path fill="#333" d="M230 0l2-204L168 0h-37L68-204 70 0H24v-248h70l56 185 57-185h69V0h-46" id="z"/><g id="d"><use transform="matrix(0.06172839506172839,0,0,0.06172839506172839,0,0)" xlink:href="#o"/><use transform="matrix(0.06172839506172839,0,0,0.06172839506172839,6.172839506172839,0)" xlink:href="#p"/><use transform="matrix(0.06172839506172839,0,0,0.06172839506172839,22.160493827160494,0)" xlink:href="#z"/></g><path fill="#333" d="M30-248c87 1 191-15 191 75 0 78-77 80-158 76V0H30v-248zm33 125c57 0 124 11 124-50 0-59-68-47-124-48v98" id="A"/><path fill="#333" d="M100-194c63 0 86 42 84 106H49c0 40 14 67 53 68 26 1 43-12 49-29l28 8c-11 28-37 45-77 45C44 4 14-33 15-96c1-61 26-98 85-98zm52 81c6-60-76-77-97-28-3 7-6 17-6 28h103" id="B"/><g id="e"><use transform="matrix(0.04320987654320987,0,0,0.04320987654320987,0,0)" xlink:href="#A"/><use transform="matrix(0.04320987654320987,0,0,0.04320987654320987,10.370370370370368,0)" xlink:href="#t"/><use transform="matrix(0.04320987654320987,0,0,0.04320987654320987,19.01234567901234,0)" xlink:href="#s"/><use transform="matrix(0.04320987654320987,0,0,0.04320987654320987,24.154320987654316,0)" xlink:href="#v"/><use transform="matrix(0.04320987654320987,0,0,0.04320987654320987,31.93209876543209,0)" xlink:href="#B"/></g><path fill="#333" d="M143 4C61 4 22-44 18-125c-5-107 100-154 193-111 17 8 29 25 37 43l-32 9c-13-25-37-40-76-40-61 0-88 39-88 99 0 61 29 100 91 101 35 0 62-11 79-27v-45h-74v-28h105v86C228-13 192 4 143 4" id="C"/><path fill="#333" d="M59-47c-2 24 18 29 38 22v24C64 9 27 4 27-40v-127H5v-23h24l9-43h21v43h35v23H59v120" id="D"/><g id="f"><use transform="matrix(0.04320987654320987,0,0,0.04320987654320987,0,0)" xlink:href="#C"/><use transform="matrix(0.04320987654320987,0,0,0.04320987654320987,12.098765432098762,0)" xlink:href="#B"/><use transform="matrix(0.04320987654320987,0,0,0.04320987654320987,20.740740740740733,0)" xlink:href="#u"/><use transform="matrix(0.04320987654320987,0,0,0.04320987654320987,29.382716049382708,0)" xlink:href="#B"/><use transform="matrix(0.04320987654320987,0,0,0.04320987654320987,38.02469135802468,0)" xlink:href="#s"/><use transform="matrix(0.04320987654320987,0,0,0.04320987654320987,43.16666666666666,0)" xlink:href="#t"/><use transform="matrix(0.04320987654320987,0,0,0.04320987654320987,51.80864197530863,0)" xlink:href="#D"/><use transform="matrix(0.04320987654320987,0,0,0.04320987654320987,56.12962962962962,0)" xlink:href="#B"/></g><path fill="#333" d="M115-194c55 1 70 41 70 98S169 2 115 4C84 4 66-9 55-30l1 105H24l-1-265h31l2 30c10-21 28-34 59-34zm-8 174c40 0 45-34 45-75s-6-73-45-74c-42 0-51 32-51 76 0 43 10 73 51 73" id="E"/><path fill="#333" d="M96-169c-40 0-48 33-48 73s9 75 48 75c24 0 41-14 43-38l32 2c-6 37-31 61-74 61-59 0-76-41-82-99-10-93 101-131 147-64 4 7 5 14 7 22l-32 3c-4-21-16-35-41-35" id="F"/><path fill="#333" d="M26 75v-336h71v23H56V52h41v23H26" id="G"/><path fill="#333" d="M101-251c82-7 93 87 43 132L82-64C71-53 59-42 53-27h129V0H18c2-99 128-94 128-182 0-28-16-43-45-43s-46 15-49 41l-32-3c6-41 34-60 81-64" id="H"/><path fill="#333" d="M3 75V52h41v-290H3v-23h71V75H3" id="I"/><g id="g"><use transform="matrix(0.04320987654320987,0,0,0.04320987654320987,0,0)" xlink:href="#E"/><use transform="matrix(0.04320987654320987,0,0,0.04320987654320987,8.641975308641973,0)" xlink:href="#s"/><use transform="matrix(0.04320987654320987,0,0,0.04320987654320987,13.783950617283947,0)" xlink:href="#x"/><use transform="matrix(0.04320987654320987,0,0,0.04320987654320987,22.42592592592592,0)" xlink:href="#D"/><use transform="matrix(0.04320987654320987,0,0,0.04320987654320987,26.746913580246908,0)" xlink:href="#x"/><use transform="matrix(0.04320987654320987,0,0,0.04320987654320987,35.38888888888888,0)" xlink:href="#F"/><use transform="matrix(0.030246913580246906,0,0,0.030246913580246906,43.16666666666666,-4.355555555555554)" xlink:href="#G"/><use transform="matrix(0.030246913580246906,0,0,0.030246913580246906,46.19135802469135,-4.355555555555554)" xlink:href="#H"/><use transform="matrix(0.030246913580246906,0,0,0.030246913580246906,52.240740740740726,-4.355555555555554)" xlink:href="#I"/></g><path fill="#333" d="M24-231v-30h32v30H24zM24 0v-190h32V0H24" id="J"/><path fill="#333" d="M141 0L90-78 38 0H4l68-98-65-92h35l48 74 47-74h35l-64 92 68 98h-35" id="K"/><path fill="#333" d="M27 0v-27h64v-190l-56 39v-29l58-41h29v221h61V0H27" id="L"/><g id="h"><use transform="matrix(0.04320987654320987,0,0,0.04320987654320987,0,0)" xlink:href="#F"/><use transform="matrix(0.04320987654320987,0,0,0.04320987654320987,7.777777777777776,0)" xlink:href="#t"/><use transform="matrix(0.04320987654320987,0,0,0.04320987654320987,16.41975308641975,0)" xlink:href="#E"/><use transform="matrix(0.04320987654320987,0,0,0.04320987654320987,25.061728395061724,0)" xlink:href="#J"/><use transform="matrix(0.04320987654320987,0,0,0.04320987654320987,28.475308641975296,0)" xlink:href="#F"/><use transform="matrix(0.04320987654320987,0,0,0.04320987654320987,36.253086419753075,0)" xlink:href="#K"/><use transform="matrix(0.04320987654320987,0,0,0.04320987654320987,44.03086419753085,0)" xlink:href="#K"/><use transform="matrix(0.030246913580246906,0,0,0.030246913580246906,51.80864197530863,-4.355555555555554)" xlink:href="#G"/><use transform="matrix(0.030246913580246906,0,0,0.030246913580246906,54.83333333333332,-4.355555555555554)" xlink:href="#L"/><use transform="matrix(0.030246913580246906,0,0,0.030246913580246906,60.8827160493827,-4.355555555555554)" xlink:href="#I"/></g><g id="i"><use transform="matrix(0.04320987654320987,0,0,0.04320987654320987,0,0)" xlink:href="#A"/><use transform="matrix(0.04320987654320987,0,0,0.04320987654320987,10.370370370370368,0)" xlink:href="#s"/><use transform="matrix(0.04320987654320987,0,0,0.04320987654320987,15.512345679012343,0)" xlink:href="#x"/><use transform="matrix(0.04320987654320987,0,0,0.04320987654320987,24.154320987654316,0)" xlink:href="#D"/><use transform="matrix(0.04320987654320987,0,0,0.04320987654320987,28.475308641975303,0)" xlink:href="#x"/></g><path fill="#333" d="M63-220v92h138v28H63V0H30v-248h175v28H63" id="M"/><g id="j"><use transform="matrix(0.04320987654320987,0,0,0.04320987654320987,0,0)" xlink:href="#M"/><use transform="matrix(0.04320987654320987,0,0,0.04320987654320987,9.46296296296296,0)" xlink:href="#s"/><use transform="matrix(0.04320987654320987,0,0,0.04320987654320987,14.604938271604935,0)" xlink:href="#t"/><use transform="matrix(0.04320987654320987,0,0,0.04320987654320987,23.246913580246908,0)" xlink:href="#u"/><use transform="matrix(0.04320987654320987,0,0,0.04320987654320987,31.88888888888888,0)" xlink:href="#F"/><use transform="matrix(0.04320987654320987,0,0,0.04320987654320987,39.66666666666666,0)" xlink:href="#t"/></g><path fill="#333" d="M212-179c-10-28-35-45-73-45-59 0-87 40-87 99 0 60 29 101 89 101 43 0 62-24 78-52l27 14C228-24 195 4 139 4 59 4 22-46 18-125c-6-104 99-153 187-111 19 9 31 26 39 46" id="N"/><path fill="#333" d="M118-107v75H92v-75H18v-26h74v-75h26v75h74v26h-74" id="O"/><g id="k"><use transform="matrix(0.04320987654320987,0,0,0.04320987654320987,0,0)" xlink:href="#N"/><use transform="matrix(0.04320987654320987,0,0,0.04320987654320987,11.191358024691356,0)" xlink:href="#O"/><use transform="matrix(0.04320987654320987,0,0,0.04320987654320987,20.26543209876543,0)" xlink:href="#O"/></g><path fill="#333" d="M205 0l-28-72H64L36 0H1l101-248h38L239 0h-34zm-38-99l-47-123c-12 45-31 82-46 123h93" id="P"/><path fill="#333" d="M33 0v-248h34V0H33" id="Q"/><g id="l"><use transform="matrix(0.04320987654320987,0,0,0.04320987654320987,0,0)" xlink:href="#P"/><use transform="matrix(0.04320987654320987,0,0,0.04320987654320987,10.370370370370368,0)" xlink:href="#A"/><use transform="matrix(0.04320987654320987,0,0,0.04320987654320987,20.740740740740737,0)" xlink:href="#Q"/></g><path fill="#333" d="M179-190L93 31C79 59 56 82 12 73V49c39 6 53-20 64-50L1-190h34L92-34l54-156h33" id="R"/><g id="m"><use transform="matrix(0.04320987654320987,0,0,0.04320987654320987,0,0)" xlink:href="#A"/><use transform="matrix(0.04320987654320987,0,0,0.04320987654320987,10.370370370370368,0)" xlink:href="#s"/><use transform="matrix(0.04320987654320987,0,0,0.04320987654320987,15.512345679012343,0)" xlink:href="#x"/><use transform="matrix(0.04320987654320987,0,0,0.04320987654320987,24.154320987654316,0)" xlink:href="#K"/><use transform="matrix(0.04320987654320987,0,0,0.04320987654320987,31.93209876543209,0)" xlink:href="#R"/></g></defs></g></svg>