<svg xmlns="http://www.w3.org/2000/svg" xmlns:xlink="http://www.w3.org/1999/xlink" xmlns:lucid="lucid" width="1040" height="520"><g transform="translate(-380 -360)" lucid:page-tab-id="0_0"><path d="M400 390a10 10 0 0 1 10-10h600a10 10 0 0 1 10 10v380a10 10 0 0 1-10 10H410a10 10 0 0 1-10-10z" fill="#d7faf5"/><path d="M428 380h12m12 0h12m12 0h12m12 0h12m12 0h12m12 0h12m12 0h12m12 0h12m12 0h12m12 0h12m12 0h12m12 0h12m12 0h12m12 0h12m12 0h12m12 0h12m12 0h12m12 0h12m12 0h12m12 0h12m12 0h12m12 0h12m12 0h12m12 0h12m12 0h6l1.56.12 1.53.37 1.44.6 1.34.8 1.2 1.03 1 1.2.83 1.33.6 1.45.38 1.54.12 1.56v5.94m0 11.87v11.9m0 11.86v11.88m0 11.87v11.9m0 11.86v11.88m0 11.87v11.9m0 11.86v11.88m0 11.87v11.9m0 11.86v11.88m0 11.87v11.9m0 11.86v11.88m0 11.87v11.9m0 11.86v11.88m0 11.87v11.9m0 11.86v11.88m0 11.87v11.9m0 11.86V770l-.12 1.56-.37 1.53-.6 1.44-.8 1.34-1.03 1.2-1.2 1-1.33.83-1.45.6-1.54.38-1.56.12h-6m-12 0h-12m-12 0h-12m-12 0h-12m-12 0h-12m-12 0h-12m-12 0h-12m-12 0h-12m-12 0h-12m-12 0h-12m-12 0h-12m-12 0h-12m-12 0h-12m-12 0h-12m-12 0h-12m-12 0h-12m-12 0h-12m-12 0h-12m-12 0h-12m-12 0h-12m-12 0h-12m-12 0h-12m-12 0h-12m-12 0h-12m-12 0h-12m-12 0h-6l-1.56-.12-1.53-.37-1.44-.6-1.34-.8-1.2-1.03-1-1.2-.83-1.33-.6-1.45-.38-1.54L400 770v-5.94m0-11.87v-11.9m0-11.86v-11.88m0-11.87v-11.9m0-11.86v-11.88m0-11.87v-11.9m0-11.86v-11.88m0-11.87v-11.9m0-11.86v-11.88m0-11.87v-11.9m0-11.86v-11.88m0-11.87v-11.9m0-11.86v-11.88m0-11.87v-11.9m0-11.86v-11.88m0-11.87v-11.9m0-11.86V390l.12-1.56.37-1.53.6-1.44.8-1.34 1.03-1.2 1.2-1 1.33-.83 1.45-.6 1.54-.38L410 380h6" stroke="#5e5e5e" stroke-width="3" fill="none"/><path d="M420 630a10 10 0 0 1 10-10h140a10 10 0 0 1 10 10v120a10 10 0 0 1-10 10H430a10 10 0 0 1-10-10z" fill="#ffdda6"/><path d="M447.5 620h11.67m11.66 0h11.67m11.67 0h11.66m11.67 0h11.67m11.66 0h11.67m11.67 0H570l1.56.12 1.53.37 1.44.6 1.34.8 1.2 1.03 1 1.2.83 1.33.6 1.45.38 1.54.12 1.56v6m0 12v12m0 12v12m0 12v12m0 12v12m0 12v6l-.12 1.56-.37 1.53-.6 1.44-.8 1.34-1.03 1.2-1.2 1-1.33.83-1.45.6-1.54.38-1.56.12h-5.83m-11.67 0h-11.67m-11.66 0H517.5m-11.67 0h-11.66m-11.67 0h-11.67m-11.66 0H447.5m-11.67 0H430l-1.56-.12-1.53-.37-1.44-.6-1.34-.8-1.2-1.03-1-1.2-.83-1.33-.6-1.45-.38-1.54L420 750v-6m0-12v-12m0-12v-12m0-12v-12m0-12v-12m0-12v-6l.12-1.56.37-1.53.6-1.44.8-1.34 1.03-1.2 1.2-1 1.33-.83 1.45-.6 1.54-.38L430 620h5.83" stroke="#5e5e5e" stroke-width="3" fill="none"/><path d="M1230 630a10 10 0 0 1 10-10h150a10 10 0 0 1 10 10v120a10 10 0 0 1-10 10h-150a10 10 0 0 1-10-10z" fill="#cfe4ff"/><path d="M1258.75 620h12.5m12.5 0h12.5m12.5 0h12.5m12.5 0h12.5m12.5 0h12.5m12.5 0h6.25l1.56.12 1.53.37 1.44.6 1.34.8 1.2 1.03 1 1.2.83 1.33.6 1.45.38 1.54.12 1.56v6m0 12v12m0 12v12m0 12v12m0 12v12m0 12v6l-.12 1.56-.37 1.53-.6 1.44-.8 1.34-1.03 1.2-1.2 1-1.33.83-1.45.6-1.54.38-1.56.12h-6.25m-12.5 0h-12.5m-12.5 0h-12.5m-12.5 0h-12.5m-12.5 0h-12.5m-12.5 0h-12.5m-12.5 0H1240l-1.56-.12-1.53-.37-1.44-.6-1.34-.8-1.2-1.03-1-1.2-.83-1.33-.6-1.45-.38-1.54-.12-1.56v-6m0-12v-12m0-12v-12m0-12v-12m0-12v-12m0-12v-6l.12-1.56.37-1.53.6-1.44.8-1.34 1.03-1.2 1.2-1 1.33-.83 1.45-.6 1.54-.38 1.56-.12h6.25" stroke="#5e5e5e" stroke-width="3" fill="none"/><path d="M1240 410a10 10 0 0 1 10-10h140a10 10 0 0 1 10 10v120a10 10 0 0 1-10 10h-140a10 10 0 0 1-10-10z" fill="#cfe4ff"/><path d="M1267.5 400h11.67m11.66 0h11.67m11.67 0h11.66m11.67 0h11.67m11.66 0h11.67m11.67 0h5.83l1.56.12 1.53.37 1.44.6 1.34.8 1.2 1.03 1 1.2.83 1.33.6 1.45.38 1.54.12 1.56v6m0 12v12m0 12v12m0 12v12m0 12v12m0 12v6l-.12 1.56-.37 1.53-.6 1.44-.8 1.34-1.03 1.2-1.2 1-1.33.83-1.45.6-1.54.38-1.56.12h-5.83m-11.67 0h-11.67m-11.66 0h-11.67m-11.67 0h-11.66m-11.67 0h-11.67m-11.66 0h-11.67m-11.67 0H1250l-1.56-.12-1.53-.37-1.44-.6-1.34-.8-1.2-1.03-1-1.2-.83-1.33-.6-1.45-.38-1.54-.12-1.56v-6m0-12v-12m0-12v-12m0-12v-12m0-12v-12m0-12v-6l.12-1.56.37-1.53.6-1.44.8-1.34 1.03-1.2 1.2-1 1.33-.83 1.45-.6 1.54-.38 1.56-.12h5.83" stroke="#5e5e5e" stroke-width="3" fill="none"/><path d="M1260 440a10 10 0 0 1 10-10h100a10 10 0 0 1 10 10v40a10 10 0 0 1-10 10h-100a10 10 0 0 1-10-10z" stroke="#5e5e5e" stroke-width="3" fill="#cfe4ff"/><use xlink:href="#a" transform="matrix(1,0,0,1,1272,442) translate(25.160493827160497 22.27777777777778)"/><path d="M1260 660a10 10 0 0 1 10-10h100a10 10 0 0 1 10 10v40a10 10 0 0 1-10 10h-100a10 10 0 0 1-10-10z" stroke="#5e5e5e" stroke-width="3" fill="#cfe4ff"/><use xlink:href="#b" transform="matrix(1,0,0,1,1272,662) translate(11.02469135802469 22.27777777777778)"/><path d="M1240 506a6 6 0 0 1 6-6h148a6 6 0 0 1 6 6v28a6 6 0 0 1-6 6h-148a6 6 0 0 1-6-6z" stroke="#000" stroke-opacity="0" stroke-width="3" fill="#fff" fill-opacity="0"/><use xlink:href="#c" transform="matrix(1,0,0,1,1245,505) translate(22.234567901234577 17.97222222222222)"/><use xlink:href="#d" transform="matrix(1,0,0,1,1245,505) translate(82.48148148148148 17.97222222222222)"/><path d="M1240 726a6 6 0 0 1 6-6h148a6 6 0 0 1 6 6v28a6 6 0 0 1-6 6h-148a6 6 0 0 1-6-6z" stroke="#000" stroke-opacity="0" stroke-width="3" fill="#fff" fill-opacity="0"/><use xlink:href="#e" transform="matrix(1,0,0,1,1245,725) translate(27.641975308641975 17.97222222222222)"/><use xlink:href="#f" transform="matrix(1,0,0,1,1245,725) translate(70.11111111111111 17.97222222222222)"/><path d="M1069 604c-13.26 0-24-10.75-24-24 0-10.6 6.5-19.55 16.58-22.83C1061 526 1101 520 1117 532c8-18 48-12 48 6 24-6 48 18 32 48 16 24 0 54-32 42-8 15.6-40 15.6-48 0-16 12-48 6-48-24z" stroke="#5e5e5e" stroke-width="3" fill="#fff"/><use xlink:href="#g" transform="matrix(1,0,0,1,1050,525) translate(35.32098765432099 59.02777777777778)"/><path d="M420 726a6 6 0 0 1 6-6h148a6 6 0 0 1 6 6v28a6 6 0 0 1-6 6H426a6 6 0 0 1-6-6z" stroke="#000" stroke-opacity="0" stroke-width="3" fill="#fff" fill-opacity="0"/><use xlink:href="#h" transform="matrix(1,0,0,1,425,725) translate(52.358024691358025 17.97222222222222)"/><path d="M440 660a10 10 0 0 1 10-10h100a10 10 0 0 1 10 10v40a10 10 0 0 1-10 10H450a10 10 0 0 1-10-10z" stroke="#5e5e5e" stroke-width="3" fill="#ffdda6"/><use xlink:href="#i" transform="matrix(1,0,0,1,452,662) translate(19.635802469135804 22.27777777777778)"/><path d="M420 410a10 10 0 0 1 10-10h150a10 10 0 0 1 10 10v120a10 10 0 0 1-10 10H430a10 10 0 0 1-10-10z" fill="#ffdda6"/><path d="M448.75 400h12.5m12.5 0h12.5m12.5 0h12.5m12.5 0h12.5m12.5 0h12.5m12.5 0H580l1.56.12 1.53.37 1.44.6 1.34.8 1.2 1.03 1 1.2.83 1.33.6 1.45.38 1.54.12 1.56v6m0 12v12m0 12v12m0 12v12m0 12v12m0 12v6l-.12 1.56-.37 1.53-.6 1.44-.8 1.34-1.03 1.2-1.2 1-1.33.83-1.45.6-1.54.38-1.56.12h-6.25m-12.5 0h-12.5m-12.5 0h-12.5m-12.5 0h-12.5m-12.5 0h-12.5m-12.5 0h-12.5m-12.5 0H430l-1.56-.12-1.53-.37-1.44-.6-1.34-.8-1.2-1.03-1-1.2-.83-1.33-.6-1.45-.38-1.54L420 530v-6m0-12v-12m0-12v-12m0-12v-12m0-12v-12m0-12v-6l.12-1.56.37-1.53.6-1.44.8-1.34 1.03-1.2 1.2-1 1.33-.83 1.45-.6 1.54-.38L430 400h6.25" stroke="#5e5e5e" stroke-width="3" fill="none"/><path d="M420 506a6 6 0 0 1 6-6h148a6 6 0 0 1 6 6v28a6 6 0 0 1-6 6H426a6 6 0 0 1-6-6z" stroke="#000" stroke-opacity="0" stroke-width="3" fill="#fff" fill-opacity="0"/><use xlink:href="#j" transform="matrix(1,0,0,1,425,505) translate(48.876543209876544 17.97222222222222)"/><path d="M438.72 440a10 10 0 0 1 10-10h100a10 10 0 0 1 10 10v40a10 10 0 0 1-10 10h-100a10 10 0 0 1-10-10z" stroke="#5e5e5e" stroke-width="3" fill="#ffdda6"/><use xlink:href="#a" transform="matrix(1,0,0,1,450.7198243907874,442) translate(25.160493827160497 22.27777777777778)"/><path d="M650.28 604c-13.25 0-24-10.75-24-24 0-10.6 6.5-19.55 16.58-22.83C642.28 526 682.28 520 698.28 532c8-18 48-12 48 6 24-6 48 18 32 48 16 24 0 54-32 42-8 15.6-40 15.6-48 0-16 12-48 6-48-24z" stroke="#5e5e5e" stroke-width="3" fill="#fff"/><use xlink:href="#k" transform="matrix(1,0,0,1,631.2801756092126,525) translate(8.222222222222214 59.02777777777778)"/><path d="M822.56 410a10 10 0 0 1 10-10H990a10 10 0 0 1 10 10v340a10 10 0 0 1-10 10H832.56a10 10 0 0 1-10-10z" fill="#f2f3f5"/><path d="M849.43 400h11.25m11.24 0h11.25m11.24 0h11.26m11.24 0h11.25m11.24 0h11.24m11.25 0h11.23m11.25 0H990l1.56.12 1.53.37 1.44.6 1.34.8 1.2 1.03 1 1.2.83 1.33.6 1.45.38 1.54.12 1.56v6.07m0 12.14v12.16m0 12.14v12.14m0 12.15v12.13m0 12.14v12.14m0 12.16v12.14m0 12.14v12.15m0 12.13v12.14m0 12.14v12.16m0 12.14v12.14m0 12.15v12.13m0 12.14v12.14m0 12.16v12.14m0 12.14v12.15m0 12.13V750l-.12 1.56-.37 1.53-.6 1.44-.8 1.34-1.03 1.2-1.2 1-1.33.83-1.45.6-1.54.38-1.56.12h-5.62m-11.25 0H961.9m-11.26 0H939.4m-11.25 0H916.9m-11.24 0H894.4m-11.23 0h-11.25m-11.25 0h-11.24m-11.25 0h-5.62l-1.56-.12-1.53-.37-1.45-.6-1.34-.8-1.2-1.03-1-1.2-.83-1.33-.6-1.45-.37-1.54-.12-1.56v-6.07m0-12.14v-12.16m0-12.14v-12.14m0-12.15v-12.13m0-12.14V646.8m0-12.16V622.5m0-12.14V598.2m0-12.13v-12.14m0-12.14v-12.16m0-12.14v-12.14m0-12.15v-12.13m0-12.14V476.8m0-12.16V452.5m0-12.14V428.2m0-12.13V410l.12-1.56.37-1.53.6-1.44.82-1.34 1.02-1.2 1.18-1 1.34-.83 1.45-.6 1.53-.38 1.56-.12h5.62" stroke="#5e5e5e" stroke-width="3" fill="none"/><path d="M850 430a10 10 0 0 1 10-10h100a10 10 0 0 1 10 10v100a10 10 0 0 1-10 10H860a10 10 0 0 1-10-10z" stroke="#5e5e5e" stroke-width="3" fill="#cfe4ff"/><path d="M850 490a10 10 0 0 1 10-10h100a10 10 0 0 1 10 10v40a10 10 0 0 1-10 10H860a10 10 0 0 1-10-10z" stroke="#5e5e5e" stroke-width="3" fill="#ffdda6"/><use xlink:href="#i" transform="matrix(1,0,0,1,862,492) translate(19.635802469135804 22.27777777777778)"/><path d="M850 630a10 10 0 0 1 10-10h100a10 10 0 0 1 10 10v100a10 10 0 0 1-10 10H860a10 10 0 0 1-10-10z" stroke="#5e5e5e" stroke-width="3" fill="#ffdda6"/><path d="M850 690a10 10 0 0 1 10-10h100a10 10 0 0 1 10 10v40a10 10 0 0 1-10 10H860a10 10 0 0 1-10-10z" stroke="#5e5e5e" stroke-width="3" fill="#cfe4ff"/><use xlink:href="#a" transform="matrix(1,0,0,1,862,692) translate(25.160493827160497 22.27777777777778)"/><path d="M850 426a6 6 0 0 1 6-6h108a6 6 0 0 1 6 6v48a6 6 0 0 1-6 6H856a6 6 0 0 1-6-6z" stroke="#000" stroke-opacity="0" stroke-width="3" fill="#fff" fill-opacity="0"/><use xlink:href="#b" transform="matrix(1,0,0,1,855,425) translate(18.02469135802469 30.27777777777778)"/><path d="M850 626a6 6 0 0 1 6-6h108a6 6 0 0 1 6 6v48a6 6 0 0 1-6 6H856a6 6 0 0 1-6-6z" stroke="#000" stroke-opacity="0" stroke-width="3" fill="#fff" fill-opacity="0"/><use xlink:href="#a" transform="matrix(1,0,0,1,855,625) translate(32.160493827160494 30.27777777777778)"/><path d="M850 556a6 6 0 0 1 6-6h108a6 6 0 0 1 6 6v48a6 6 0 0 1-6 6H856a6 6 0 0 1-6-6z" stroke="#000" stroke-opacity="0" stroke-width="3" fill="#fff" fill-opacity="0"/><use xlink:href="#l" transform="matrix(1,0,0,1,855,555) translate(0.12345679012346267 30.27777777777778)"/><use xlink:href="#m" transform="matrix(1,0,0,1,855,555) translate(48.20987654320988 30.27777777777778)"/><path d="M1257.7 459.4l-11.33-8.3-11.25-7.55-10.55-6.46-9.98-5.56-9.53-4.78-9.15-4.13-8.85-3.55-8.62-3.04-8.44-2.6-8.3-2.17-8.26-1.8-8.22-1.42-8.23-1.08-8.3-.73-8.4-.4-8.56-.03-8.77.34-9.04.72-9.37 1.14-9.78 1.62-10.28 2.13-10.9 2.75-11.62 3.46-12.52 4.3-13.64 5.34-15 6.6-14.48 7.12" stroke="#5e5e5e" stroke-width="2" stroke-linejoin="round" fill="none"/><path d="M1258.5 458.76v2.48l-1.42-1.04 1.18-1.62z" stroke="#5e5e5e" stroke-width=".05" fill="#5e5e5e"/><path d="M972.86 448.48l10.42-10.78 4.35 8.18z" stroke="#5e5e5e" stroke-width="2" fill="#5e5e5e"/><path d="M972.4 710.44l15.9 7.8 14.65 6.43 13.07 5.1 11.85 4.05 10.9 3.23 10.18 2.56 9.6 2 9.12 1.5 8.77 1.05 8.5.66 8.3.32 8.16-.05 8.1-.4 8.08-.7 8.13-1.08 8.25-1.45 8.42-1.85 8.67-2.27 9-2.78 9.45-3.35 10-4.03 10.7-4.84 11.65-5.87 12.84-7.16 14.43-8.87 14.33-9.65" stroke="#5e5e5e" stroke-width="2" stroke-linejoin="round" fill="none"/><path d="M972.86 709.55l-.88 1.8-.48-.24v-2.2z" stroke="#5e5e5e" stroke-width=".05" fill="#5e5e5e"/><path d="M1255.87 681.9l-8.9 12.07-5.4-7.54z" stroke="#5e5e5e" stroke-width="2" fill="#5e5e5e"/><path d="M562.42 680.4l37.36 16.28 20.68 7.95 15.2 5.12 12.33 3.58 10.56 2.6 9.4 1.9 8.52 1.33 7.9.9 7.45.56 7.1.2 6.84-.06 6.68-.36 6.56-.62 6.52-.9 6.53-1.18 6.58-1.48 6.7-1.8 6.87-2.16 7.1-2.57 7.44-3.05 7.83-3.6 8.35-4.26 9-5.1 9.8-6.1 10.9-7.4 12.26-9.15 11.1-9" stroke="#5e5e5e" stroke-width="2" stroke-linejoin="round" fill="none"/><path d="M562.84 679.5l-.8 1.83-.54-.24v-2.2z" stroke="#5e5e5e" stroke-width=".05" fill="#5e5e5e"/><path d="M847.54 652.1l-7.8 12.82-6.04-7.03z" stroke="#5e5e5e" stroke-width="2" fill="#5e5e5e"/><path d="M847.8 509.27l-11.2-11.87-10.57-10.3-9.58-8.6-8.8-7.25-8.2-6.2-7.73-5.32-7.33-4.62-7.04-4.03-6.8-3.53-6.63-3.1-6.52-2.7-6.44-2.4-6.44-2.06-6.48-1.8-6.56-1.5-6.7-1.27-6.9-1-7.2-.72-7.53-.45-8.03-.14-8.65.2-9.48.63-10.62 1.15-12.2 1.84-14.63 2.85-18.74 4.48-27.68 7.87-15.3 4.9" stroke="#5e5e5e" stroke-width="2" stroke-linejoin="round" fill="none"/><path d="M848.5 511.46l-1.43-1.52 1.43-1.36z" stroke="#5e5e5e" stroke-width=".05" fill="#5e5e5e"/><path d="M563.3 459l12.16-8.77 2.84 8.82z" stroke="#5e5e5e" stroke-width="2" fill="#5e5e5e"/><path d="M786.28 830a10 10 0 0 1 10-10h68.13a10 10 0 0 1 10 10v20a10 10 0 0 1-10 10H796.3a10 10 0 0 1-10-10z" stroke="#5e5e5e" stroke-width="3" fill="#cfe4ff"/><use xlink:href="#n" transform="matrix(1,0,0,1,798.2801756092126,832) translate(2.9320987654321016 17.77777777777778)"/><path d="M619.07 830a10 10 0 0 1 10-10H757.2a10 10 0 0 1 10 10v20a10 10 0 0 1-10 10H629.08a10 10 0 0 1-10-10z" stroke="#5e5e5e" stroke-width="3" fill="#ffdda6"/><use xlink:href="#o" transform="matrix(1,0,0,1,631.0742269826596,832) translate(-0.3703703703703667 17.77777777777778)"/><path d="M400 830a10 10 0 0 1 10-10h180a10 10 0 0 1 10 10v20a10 10 0 0 1-10 10H410a10 10 0 0 1-10-10z" stroke="#5e5e5e" stroke-width="3" fill="#d7faf5"/><g><use xlink:href="#p" transform="matrix(1,0,0,1,412,832) translate(4.2037037037037095 17.77777777777778)"/><use xlink:href="#q" transform="matrix(1,0,0,1,412,832) translate(71.98148148148148 17.77777777777778)"/></g><defs><path fill="#333" d="M185-189c-5-48-123-54-124 2 14 75 158 14 163 119 3 78-121 87-175 55-17-10-28-26-33-46l33-7c5 56 141 63 141-1 0-78-155-14-162-118-5-82 145-84 179-34 5 7 8 16 11 25" id="r"/><path fill="#333" d="M59-47c-2 24 18 29 38 22v24C64 9 27 4 27-40v-127H5v-23h24l9-43h21v43h35v23H59v120" id="s"/><path fill="#333" d="M84 4C-5 8 30-112 23-190h32v120c0 31 7 50 39 49 72-2 45-101 50-169h31l1 190h-30c-1-10 1-25-2-33-11 22-28 36-60 37" id="t"/><path fill="#333" d="M115-194c53 0 69 39 70 98 0 66-23 100-70 100C84 3 66-7 56-30L54 0H23l1-261h32v101c10-23 28-34 59-34zm-8 174c40 0 45-34 45-75 0-40-5-75-45-74-42 0-51 32-51 76 0 43 10 73 51 73" id="u"/><g id="a"><use transform="matrix(0.06172839506172839,0,0,0.06172839506172839,0,0)" xlink:href="#r"/><use transform="matrix(0.06172839506172839,0,0,0.06172839506172839,14.814814814814813,0)" xlink:href="#s"/><use transform="matrix(0.06172839506172839,0,0,0.06172839506172839,20.98765432098765,0)" xlink:href="#t"/><use transform="matrix(0.06172839506172839,0,0,0.06172839506172839,33.33333333333333,0)" xlink:href="#u"/></g><path fill="#333" d="M100-194c63 0 86 42 84 106H49c0 40 14 67 53 68 26 1 43-12 49-29l28 8c-11 28-37 45-77 45C44 4 14-33 15-96c1-61 26-98 85-98zm52 81c6-60-76-77-97-28-3 7-6 17-6 28h103" id="v"/><path fill="#333" d="M114-163C36-179 61-72 57 0H25l-1-190h30c1 12-1 29 2 39 6-27 23-49 58-41v29" id="w"/><path fill="#333" d="M108 0H70L1-190h34L89-25l56-165h34" id="x"/><path fill="#333" d="M24-231v-30h32v30H24zM24 0v-190h32V0H24" id="y"/><path fill="#333" d="M96-169c-40 0-48 33-48 73s9 75 48 75c24 0 41-14 43-38l32 2c-6 37-31 61-74 61-59 0-76-41-82-99-10-93 101-131 147-64 4 7 5 14 7 22l-32 3c-4-21-16-35-41-35" id="z"/><g id="b"><use transform="matrix(0.06172839506172839,0,0,0.06172839506172839,0,0)" xlink:href="#r"/><use transform="matrix(0.06172839506172839,0,0,0.06172839506172839,14.814814814814813,0)" xlink:href="#v"/><use transform="matrix(0.06172839506172839,0,0,0.06172839506172839,27.160493827160494,0)" xlink:href="#w"/><use transform="matrix(0.06172839506172839,0,0,0.06172839506172839,34.50617283950617,0)" xlink:href="#x"/><use transform="matrix(0.06172839506172839,0,0,0.06172839506172839,45.61728395061728,0)" xlink:href="#y"/><use transform="matrix(0.06172839506172839,0,0,0.06172839506172839,50.49382716049382,0)" xlink:href="#z"/><use transform="matrix(0.06172839506172839,0,0,0.06172839506172839,61.60493827160494,0)" xlink:href="#v"/></g><path fill="#333" d="M30-248c87 1 191-15 191 75 0 78-77 80-158 76V0H30v-248zm33 125c57 0 124 11 124-50 0-59-68-47-124-48v98" id="A"/><path fill="#333" d="M179-190L93 31C79 59 56 82 12 73V49c39 6 53-20 64-50L1-190h34L92-34l54-156h33" id="B"/><path fill="#333" d="M106-169C34-169 62-67 57 0H25v-261h32l-1 103c12-21 28-36 61-36 89 0 53 116 60 194h-32v-121c2-32-8-49-39-48" id="C"/><path fill="#333" d="M100-194c62-1 85 37 85 99 1 63-27 99-86 99S16-35 15-95c0-66 28-99 85-99zM99-20c44 1 53-31 53-75 0-43-8-75-51-75s-53 32-53 75 10 74 51 75" id="D"/><path fill="#333" d="M117-194c89-4 53 116 60 194h-32v-121c0-31-8-49-39-48C34-167 62-67 57 0H25l-1-190h30c1 10-1 24 2 32 11-22 29-35 61-36" id="E"/><g id="c"><use transform="matrix(0.049382716049382706,0,0,0.049382716049382706,0,0)" xlink:href="#A"/><use transform="matrix(0.049382716049382706,0,0,0.049382716049382706,11.85185185185185,0)" xlink:href="#B"/><use transform="matrix(0.049382716049382706,0,0,0.049382716049382706,20.740740740740737,0)" xlink:href="#s"/><use transform="matrix(0.049382716049382706,0,0,0.049382716049382706,25.679012345679006,0)" xlink:href="#C"/><use transform="matrix(0.049382716049382706,0,0,0.049382716049382706,35.55555555555554,0)" xlink:href="#D"/><use transform="matrix(0.049382716049382706,0,0,0.049382716049382706,45.43209876543209,0)" xlink:href="#E"/></g><path fill="#333" d="M212-179c-10-28-35-45-73-45-59 0-87 40-87 99 0 60 29 101 89 101 43 0 62-24 78-52l27 14C228-24 195 4 139 4 59 4 22-46 18-125c-6-104 99-153 187-111 19 9 31 26 39 46" id="F"/><path fill="#333" d="M24 0v-261h32V0H24" id="G"/><g id="d"><use transform="matrix(0.049382716049382706,0,0,0.049382716049382706,0,0)" xlink:href="#F"/><use transform="matrix(0.049382716049382706,0,0,0.049382716049382706,12.790123456790122,0)" xlink:href="#G"/><use transform="matrix(0.049382716049382706,0,0,0.049382716049382706,16.691358024691354,0)" xlink:href="#y"/><use transform="matrix(0.049382716049382706,0,0,0.049382716049382706,20.592592592592588,0)" xlink:href="#v"/><use transform="matrix(0.049382716049382706,0,0,0.049382716049382706,30.46913580246913,0)" xlink:href="#E"/><use transform="matrix(0.049382716049382706,0,0,0.049382716049382706,40.34567901234567,0)" xlink:href="#s"/></g><path fill="#333" d="M153-248C145-148 188 4 80 4 36 3 13-21 6-62l32-5c4 25 16 42 43 43 27 0 39-20 39-49v-147H72v-28h81" id="H"/><path fill="#333" d="M141-36C126-15 110 5 73 4 37 3 15-17 15-53c-1-64 63-63 125-63 3-35-9-54-41-54-24 1-41 7-42 31l-33-3c5-37 33-52 76-52 45 0 72 20 72 64v82c-1 20 7 32 28 27v20c-31 9-61-2-59-35zM48-53c0 20 12 33 32 33 41-3 63-29 60-74-43 2-92-5-92 41" id="I"/><g id="e"><use transform="matrix(0.049382716049382706,0,0,0.049382716049382706,0,0)" xlink:href="#H"/><use transform="matrix(0.049382716049382706,0,0,0.049382716049382706,8.888888888888888,0)" xlink:href="#I"/><use transform="matrix(0.049382716049382706,0,0,0.049382716049382706,18.76543209876543,0)" xlink:href="#x"/><use transform="matrix(0.049382716049382706,0,0,0.049382716049382706,27.654320987654316,0)" xlink:href="#I"/></g><g id="f"><use transform="matrix(0.049382716049382706,0,0,0.049382716049382706,0,0)" xlink:href="#r"/><use transform="matrix(0.049382716049382706,0,0,0.049382716049382706,11.85185185185185,0)" xlink:href="#v"/><use transform="matrix(0.049382716049382706,0,0,0.049382716049382706,21.728395061728392,0)" xlink:href="#w"/><use transform="matrix(0.049382716049382706,0,0,0.049382716049382706,27.604938271604933,0)" xlink:href="#x"/><use transform="matrix(0.049382716049382706,0,0,0.049382716049382706,36.49382716049382,0)" xlink:href="#v"/><use transform="matrix(0.049382716049382706,0,0,0.049382716049382706,46.37037037037037,0)" xlink:href="#w"/></g><path fill="#333" d="M197 0v-115H63V0H30v-248h33v105h134v-105h34V0h-34" id="J"/><path fill="#333" d="M127-220V0H93v-220H8v-28h204v28h-85" id="K"/><path fill="#333" d="M0 4l72-265h28L28 4H0" id="L"/><path fill="#333" d="M101-251c82-7 93 87 43 132L82-64C71-53 59-42 53-27h129V0H18c2-99 128-94 128-182 0-28-16-43-45-43s-46 15-49 41l-32-3c6-41 34-60 81-64" id="M"/><g id="g"><use transform="matrix(0.06172839506172839,0,0,0.06172839506172839,0,0)" xlink:href="#J"/><use transform="matrix(0.06172839506172839,0,0,0.06172839506172839,15.987654320987653,0)" xlink:href="#K"/><use transform="matrix(0.06172839506172839,0,0,0.06172839506172839,29.50617283950617,0)" xlink:href="#K"/><use transform="matrix(0.06172839506172839,0,0,0.06172839506172839,43.02469135802469,0)" xlink:href="#A"/><use transform="matrix(0.06172839506172839,0,0,0.06172839506172839,57.839506172839506,0)" xlink:href="#L"/><use transform="matrix(0.06172839506172839,0,0,0.06172839506172839,64.01234567901234,0)" xlink:href="#M"/></g><g id="h"><use transform="matrix(0.049382716049382706,0,0,0.049382716049382706,0,0)" xlink:href="#F"/><use transform="matrix(0.049382716049382706,0,0,0.049382716049382706,12.790123456790122,0)" xlink:href="#G"/><use transform="matrix(0.049382716049382706,0,0,0.049382716049382706,16.691358024691354,0)" xlink:href="#y"/><use transform="matrix(0.049382716049382706,0,0,0.049382716049382706,20.592592592592588,0)" xlink:href="#v"/><use transform="matrix(0.049382716049382706,0,0,0.049382716049382706,30.46913580246913,0)" xlink:href="#E"/><use transform="matrix(0.049382716049382706,0,0,0.049382716049382706,40.34567901234567,0)" xlink:href="#s"/></g><path fill="#333" d="M141 0L90-78 38 0H4l68-98-65-92h35l48 74 47-74h35l-64 92 68 98h-35" id="N"/><g id="i"><use transform="matrix(0.06172839506172839,0,0,0.06172839506172839,0,0)" xlink:href="#A"/><use transform="matrix(0.06172839506172839,0,0,0.06172839506172839,14.814814814814813,0)" xlink:href="#w"/><use transform="matrix(0.06172839506172839,0,0,0.06172839506172839,22.160493827160494,0)" xlink:href="#D"/><use transform="matrix(0.06172839506172839,0,0,0.06172839506172839,34.50617283950617,0)" xlink:href="#N"/><use transform="matrix(0.06172839506172839,0,0,0.06172839506172839,45.61728395061728,0)" xlink:href="#B"/></g><g id="j"><use transform="matrix(0.049382716049382706,0,0,0.049382716049382706,0,0)" xlink:href="#r"/><use transform="matrix(0.049382716049382706,0,0,0.049382716049382706,11.85185185185185,0)" xlink:href="#v"/><use transform="matrix(0.049382716049382706,0,0,0.049382716049382706,21.728395061728392,0)" xlink:href="#w"/><use transform="matrix(0.049382716049382706,0,0,0.049382716049382706,27.604938271604933,0)" xlink:href="#x"/><use transform="matrix(0.049382716049382706,0,0,0.049382716049382706,36.49382716049382,0)" xlink:href="#v"/><use transform="matrix(0.049382716049382706,0,0,0.049382716049382706,46.37037037037037,0)" xlink:href="#w"/></g><path fill="#333" d="M240 0l2-218c-23 76-54 145-80 218h-23L58-218 59 0H30v-248h44l77 211c21-75 51-140 76-211h43V0h-30" id="O"/><path fill="#333" d="M85-194c31 0 48 13 60 33l-1-100h32l1 261h-30c-2-10 0-23-3-31C134-8 116 4 85 4 32 4 16-35 15-94c0-66 23-100 70-100zm9 24c-40 0-46 34-46 75 0 40 6 74 45 74 42 0 51-32 51-76 0-42-9-74-50-73" id="P"/><path fill="#333" d="M206 0h-36l-40-164L89 0H53L-1-190h32L70-26l43-164h34l41 164 42-164h31" id="Q"/><path fill="#333" d="M26 75v-336h71v23H56V52h41v23H26" id="R"/><path fill="#333" d="M27 0v-27h64v-190l-56 39v-29l58-41h29v221h61V0H27" id="S"/><path fill="#333" d="M3 75V52h41v-290H3v-23h71V75H3" id="T"/><g id="k"><use transform="matrix(0.06172839506172839,0,0,0.06172839506172839,0,0)" xlink:href="#O"/><use transform="matrix(0.06172839506172839,0,0,0.06172839506172839,18.456790123456788,0)" xlink:href="#y"/><use transform="matrix(0.06172839506172839,0,0,0.06172839506172839,23.33333333333333,0)" xlink:href="#P"/><use transform="matrix(0.06172839506172839,0,0,0.06172839506172839,35.679012345679006,0)" xlink:href="#P"/><use transform="matrix(0.06172839506172839,0,0,0.06172839506172839,48.02469135802468,0)" xlink:href="#G"/><use transform="matrix(0.06172839506172839,0,0,0.06172839506172839,52.90123456790123,0)" xlink:href="#v"/><use transform="matrix(0.06172839506172839,0,0,0.06172839506172839,65.24691358024691,0)" xlink:href="#Q"/><use transform="matrix(0.06172839506172839,0,0,0.06172839506172839,81.23456790123457,0)" xlink:href="#I"/><use transform="matrix(0.06172839506172839,0,0,0.06172839506172839,93.58024691358025,0)" xlink:href="#w"/><use transform="matrix(0.06172839506172839,0,0,0.06172839506172839,100.92592592592594,0)" xlink:href="#v"/><use transform="matrix(0.043209876543209874,0,0,0.043209876543209874,113.27160493827162,-6.222222222222221)" xlink:href="#R"/><use transform="matrix(0.043209876543209874,0,0,0.043209876543209874,117.59259259259261,-6.222222222222221)" xlink:href="#S"/><use transform="matrix(0.043209876543209874,0,0,0.043209876543209874,126.23456790123458,-6.222222222222221)" xlink:href="#T"/></g><path fill="#333" d="M67-125c0 53 21 87 73 88 37 1 54-22 65-47l45 17C233-25 199 4 140 4 58 4 20-42 15-125 8-235 124-281 211-232c18 10 29 29 36 50l-46 12c-8-25-30-41-62-41-52 0-71 34-72 86" id="U"/><path fill="#333" d="M125-100v72H85v-72H15v-39h70v-72h40v72h71v39h-71" id="V"/><g id="l"><use transform="matrix(0.06172839506172839,0,0,0.06172839506172839,0,0)" xlink:href="#U"/><use transform="matrix(0.06172839506172839,0,0,0.06172839506172839,15.987654320987653,0)" xlink:href="#V"/><use transform="matrix(0.06172839506172839,0,0,0.06172839506172839,28.950617283950614,0)" xlink:href="#V"/></g><path fill="#333" d="M24-248c93 1 206-16 204 79-1 75-69 88-152 82V0H24v-248zm52 121c47 0 100 7 100-41 0-47-54-39-100-39v80" id="W"/><path fill="#333" d="M135-150c-39-12-60 13-60 57V0H25l-1-190h47c2 13-1 29 3 40 6-28 27-53 61-41v41" id="X"/><path fill="#333" d="M110-194c64 0 96 36 96 99 0 64-35 99-97 99-61 0-95-36-95-99 0-62 34-99 96-99zm-1 164c35 0 45-28 45-65 0-40-10-65-43-65-34 0-45 26-45 65 0 36 10 65 43 65" id="Y"/><path fill="#333" d="M144 0l-44-69L55 0H2l70-98-66-92h53l41 62 40-62h54l-67 91 71 99h-54" id="Z"/><path fill="#333" d="M123 10C108 53 80 86 19 72V37c35 8 53-11 59-39L3-190h52l48 148c12-52 28-100 44-148h51" id="aa"/><g id="m"><use transform="matrix(0.06172839506172839,0,0,0.06172839506172839,0,0)" xlink:href="#W"/><use transform="matrix(0.06172839506172839,0,0,0.06172839506172839,14.814814814814813,0)" xlink:href="#X"/><use transform="matrix(0.06172839506172839,0,0,0.06172839506172839,23.456790123456788,0)" xlink:href="#Y"/><use transform="matrix(0.06172839506172839,0,0,0.06172839506172839,36.9753086419753,0)" xlink:href="#Z"/><use transform="matrix(0.06172839506172839,0,0,0.06172839506172839,49.32098765432098,0)" xlink:href="#aa"/></g><path fill="#333" d="M177-190C167-65 218 103 67 71c-23-6-38-20-44-43l32-5c15 47 100 32 89-28v-30C133-14 115 1 83 1 29 1 15-40 15-95c0-56 16-97 71-98 29-1 48 16 59 35 1-10 0-23 2-32h30zM94-22c36 0 50-32 50-73 0-42-14-75-50-75-39 0-46 34-46 75s6 73 46 73" id="ab"/><path fill="#333" d="M233-177c-1 41-23 64-60 70L243 0h-38l-65-103H63V0H30v-248c88 3 205-21 203 71zM63-129c60-2 137 13 137-47 0-61-80-42-137-45v92" id="ac"/><g id="n"><use transform="matrix(0.06172839506172839,0,0,0.06172839506172839,0,0)" xlink:href="#ab"/><use transform="matrix(0.06172839506172839,0,0,0.06172839506172839,12.345679012345679,0)" xlink:href="#ac"/><use transform="matrix(0.06172839506172839,0,0,0.06172839506172839,28.333333333333332,0)" xlink:href="#A"/><use transform="matrix(0.06172839506172839,0,0,0.06172839506172839,43.148148148148145,0)" xlink:href="#F"/></g><path fill="#333" d="M210-169c-67 3-38 105-44 169h-31v-121c0-29-5-50-35-48C34-165 62-65 56 0H25l-1-190h30c1 10-1 24 2 32 10-44 99-50 107 0 11-21 27-35 58-36 85-2 47 119 55 194h-31v-121c0-29-5-49-35-48" id="ad"/><path fill="#333" d="M205 0l-28-72H64L36 0H1l101-248h38L239 0h-34zm-38-99l-47-123c-12 45-31 82-46 123h93" id="ae"/><path fill="#333" d="M33 0v-248h34V0H33" id="af"/><g id="o"><use transform="matrix(0.06172839506172839,0,0,0.06172839506172839,0,0)" xlink:href="#F"/><use transform="matrix(0.06172839506172839,0,0,0.06172839506172839,15.987654320987653,0)" xlink:href="#D"/><use transform="matrix(0.06172839506172839,0,0,0.06172839506172839,28.333333333333332,0)" xlink:href="#ad"/><use transform="matrix(0.06172839506172839,0,0,0.06172839506172839,46.79012345679012,0)" xlink:href="#ad"/><use transform="matrix(0.06172839506172839,0,0,0.06172839506172839,65.24691358024691,0)" xlink:href="#D"/><use transform="matrix(0.06172839506172839,0,0,0.06172839506172839,77.5925925925926,0)" xlink:href="#E"/><use transform="matrix(0.06172839506172839,0,0,0.06172839506172839,89.93827160493828,0)" xlink:href="#ae"/><use transform="matrix(0.06172839506172839,0,0,0.06172839506172839,104.75308641975309,0)" xlink:href="#A"/><use transform="matrix(0.06172839506172839,0,0,0.06172839506172839,119.5679012345679,0)" xlink:href="#af"/></g><g id="p"><use transform="matrix(0.06172839506172839,0,0,0.06172839506172839,0,0)" xlink:href="#K"/><use transform="matrix(0.06172839506172839,0,0,0.06172839506172839,11.049382716049381,0)" xlink:href="#I"/><use transform="matrix(0.06172839506172839,0,0,0.06172839506172839,23.39506172839506,0)" xlink:href="#w"/><use transform="matrix(0.06172839506172839,0,0,0.06172839506172839,30.74074074074074,0)" xlink:href="#ab"/><use transform="matrix(0.06172839506172839,0,0,0.06172839506172839,43.08641975308642,0)" xlink:href="#v"/><use transform="matrix(0.06172839506172839,0,0,0.06172839506172839,55.432098765432094,0)" xlink:href="#s"/></g><path fill="#333" d="M101-234c-31-9-42 10-38 44h38v23H63V0H32v-167H5v-23h27c-7-52 17-82 69-68v24" id="ag"/><g id="q"><use transform="matrix(0.06172839506172839,0,0,0.06172839506172839,0,0)" xlink:href="#A"/><use transform="matrix(0.06172839506172839,0,0,0.06172839506172839,14.814814814814813,0)" xlink:href="#G"/><use transform="matrix(0.06172839506172839,0,0,0.06172839506172839,19.691358024691354,0)" xlink:href="#I"/><use transform="matrix(0.06172839506172839,0,0,0.06172839506172839,32.03703703703703,0)" xlink:href="#s"/><use transform="matrix(0.06172839506172839,0,0,0.06172839506172839,38.20987654320987,0)" xlink:href="#ag"/><use transform="matrix(0.06172839506172839,0,0,0.06172839506172839,44.382716049382715,0)" xlink:href="#D"/><use transform="matrix(0.06172839506172839,0,0,0.06172839506172839,56.72839506172839,0)" xlink:href="#w"/><use transform="matrix(0.06172839506172839,0,0,0.06172839506172839,64.07407407407408,0)" xlink:href="#ad"/><use transform="matrix(0.043209876543209874,0,0,0.043209876543209874,82.53086419753086,-6.222222222222221)" xlink:href="#R"/><use transform="matrix(0.043209876543209874,0,0,0.043209876543209874,86.85185185185185,-6.222222222222221)" xlink:href="#M"/><use transform="matrix(0.043209876543209874,0,0,0.043209876543209874,95.49382716049382,-6.222222222222221)" xlink:href="#T"/></g></defs></g></svg>